<svg version="1.1" xmlns="http://www.w3.org/2000/svg" xmlns:xlink="http://www.w3.org/1999/xlink" x="0px" y="0px" width="287.665px" height="170.626px" viewBox="0 0 287.665 170.626" enable-background="new 0 0 287.665 170.626" xml:space="preserve">
	<!-- 畫線群組 -->
	<g id="drawCarLine" class="animateItem" data-delay="0">
		<!-- 車頭 -->
		<path fill="none" stroke="#071549" stroke-width="2" stroke-miterlimit="10" d="M17.385,135.604c0,2.545,2.076,5.396,4.623,5.396 h12.615c0.468-10,8.693-17.914,18.786-17.914C63.5,123.086,71.728,131,72.188,141h4.695c2.546,0,6.116-3.624,6.116-6.167V51.969 c0-2.54-2.825-4.622-5.369-4.622c0,0-24.884-0.37-35.707,0.158c-10.026,0.481-17.483,8.029-20.586,16.561 c-2.523,6.989-3.447,17.681-3.828,25.092C16.718,104.389,17.385,120.349,17.385,135.604z"/>
		<!-- 開門把手 -->
		<path fill="none" stroke="#071549" stroke-width="2" stroke-miterlimit="10" d="M59.573,105c0-1.771,1.453-4,3.229-4H73.17 c1.771,0,3.224,2.229,3.224,4s-1.452,4-3.224,4H62.803C61.026,109,59.573,106.771,59.573,105z"/>
		<!-- 小方框 -->
		<path fill="none" stroke="#071549" stroke-width="2" stroke-miterlimit="10" d="M25.174,123.004c0-0.933,0.759-2.004,1.688-2.004 h4.61c0.927,0,1.689,1.071,1.689,2.004c0,0.929-0.763,1.996-1.689,1.996h-4.61C25.933,125,25.174,123.933,25.174,123.004z"/>
		<!-- 車窗 -->
		<path fill="none" stroke="#071549" stroke-width="2" stroke-miterlimit="10" d="M24.557,91.209c0-5.908,2.874-24.708,4.258-27.415 c1.693-3.311,5.605-7.196,11.084-7.388c5.908-0.201,28.756-0.07,28.756-0.07c1.392,0,3.346,0.796,3.346,1.78v32.098 C72,91.204,69.227,94,67.833,94H26.996C25.606,94,24.557,92.2,24.557,91.209z"/>
		<!-- 車頭燈 -->
		<path fill="#071549" d="M20.925,124.732c0,3.639-1.704,6.579-3.806,6.579c-2.099,0-3.8-2.94-3.8-6.579 c0-3.632,1.701-6.577,3.8-6.577C19.221,118.155,20.925,121.101,20.925,124.732z"/>
		<!-- 輪胎 -->
		<g id="tire" class="animateItem" data-delay="1400">
			<!-- 左輪 -->
			<path fill="none" stroke="#071549" stroke-width="1.7094" stroke-miterlimit="10" d="M68.054,142.992 c0,8.248-6.687,14.938-14.938,14.938c-8.245,0-14.931-6.69-14.931-14.938c0-8.243,6.687-14.929,14.931-14.929 C61.367,128.063,68.054,134.749,68.054,142.992z"/>
			<path fill="none" stroke="#071549" stroke-width="1.7094" stroke-miterlimit="10" d="M60.355,142.992 c0,4.003-3.239,7.248-7.24,7.248c-3.994,0-7.241-3.245-7.241-7.248c0-3.996,3.247-7.239,7.241-7.239 C57.117,135.753,60.355,138.997,60.355,142.992z"/>
			<path fill="none" stroke="#071549" stroke-width="1.7094" stroke-miterlimit="10" d="M56.928,142.992 c0,2.107-1.706,3.807-3.812,3.807c-2.099,0-3.811-1.699-3.811-3.807c0-2.102,1.711-3.805,3.811-3.805 C55.222,139.187,56.928,140.891,56.928,142.992z"/>
			<!-- 右輪 -->
			<path fill="none" stroke="#071549" stroke-width="1.7094" stroke-miterlimit="10" d="M220.104,142.499 c0,8.248-6.687,14.938-14.938,14.938c-8.245,0-14.931-6.69-14.931-14.938c0-8.243,6.687-14.929,14.931-14.929 C213.418,127.57,220.104,134.256,220.104,142.499z"/>
			<path fill="none" stroke="#071549" stroke-width="1.7094" stroke-miterlimit="10" d="M212.406,142.499 c0,4.003-3.239,7.248-7.24,7.248c-3.994,0-7.241-3.245-7.241-7.248c0-3.996,3.247-7.239,7.241-7.239 C209.167,135.26,212.406,138.503,212.406,142.499z"/>
			<path fill="none" stroke="#071549" stroke-width="1.7094" stroke-miterlimit="10" d="M208.979,142.499 c0,2.107-1.706,3.807-3.812,3.807c-2.099,0-3.811-1.699-3.811-3.807c0-2.102,1.711-3.805,3.811-3.805 C207.272,138.694,208.979,140.397,208.979,142.499z"/>
		</g>
		<!-- 車體 -->
		<path fill="none" stroke="#071549" stroke-width="1.8515" stroke-miterlimit="10" d="M227.4,22.203H91.073 c-2.495,0-4.54,2.046-4.54,4.544v108.207c0,2.498,2.045,4.54,4.54,4.54h95.191c0.442-9.991,9.326-16.797,19.425-16.797 c10.104,0,17.7,6.806,18.137,16.797h3.574c2.499,0,4.536-2.042,4.536-4.54V26.747C231.937,24.249,229.899,22.203,227.4,22.203z"/>
		<rect x="113" y="44" fill="none" stroke="#071549" stroke-width="2" stroke-miterlimit="10" width="118" height="27"/>
		<!-- 車尾燈 -->
		<path fill="#071549" d="M236.648,128.172h-1.827c-1.464,0-2.673-1.204-2.673-2.673v-0.135c0-1.469,1.209-2.667,2.673-2.667h1.827 c1.467,0,2.666,1.198,2.666,2.667v0.135C239.314,126.968,238.115,128.172,236.648,128.172z"/>
		<path fill="#071549" d="M232.685,130.963h-0.471c-1.684,0-3.063-1.379-3.063-3.066v-4.929c0-1.682,1.38-3.07,3.063-3.07h0.471 c1.688,0,3.075,1.389,3.075,3.07v4.929C235.76,129.584,234.373,130.963,232.685,130.963z"/>
	</g>
	<!-- 車後方的速度線 -->
	<g id="carSpeedLine" class="animateItem" data-delay="1400">
		<line fill="none" stroke="#071549" stroke-width="3" stroke-linecap="round" stroke-linejoin="round" stroke-miterlimit="10" x1="240" y1="81.5" x2="271" y2="81.5"/>
		<line fill="none" stroke="#071549" stroke-width="3" stroke-linecap="round" stroke-linejoin="round" stroke-miterlimit="10" x1="240" y1="91.5" x2="261" y2="91.5"/>
		<line fill="none" stroke="#071549" stroke-width="3" stroke-linecap="round" stroke-linejoin="round" stroke-miterlimit="10" x1="240" y1="100.5" x2="248" y2="100.5"/>
	</g>
	<!-- 飛機線 -->
	<line id="airplaneLine" class="animateItem" fill="none" stroke="#071549" stroke-width="2" stroke-miterlimit="10" x1="230" y1="92" x2="135" y2="92" data-delay="1100"/>
	<!-- 飛機 -->
	<path id="airplaneImg" class="animateItem" fill="#071549" d="M128.905,90.197c0.174-0.068,0.267-0.136,0.267-0.214c0-0.063-0.09-0.141-0.261-0.217l0.722-2.499 c0.04-0.136-0.107-0.257-0.23-0.183l-0.59,0.322c-0.184,0.102-0.326,0.246-0.431,0.43l-0.893,1.556 c-1.491-0.276-3.801-0.526-6.192-0.667l1.625-7.876c0.027-0.142-0.139-0.243-0.259-0.144l-0.423,0.354 c-0.147,0.126-0.269,0.278-0.352,0.457l-1.659,3.416l-0.279-0.001c-0.216,0-0.401,0.17-0.404,0.384 c0,0.188,0.134,0.348,0.316,0.385l-1.419,2.916c-3.583-0.06-6.686,0.213-6.693,1.126c-0.018,0.912,3.078,1.272,6.663,1.313 l1.323,2.95c-0.177,0.036-0.309,0.189-0.312,0.383c0,0.213,0.167,0.389,0.382,0.396l0.283,0.004l1.566,3.461 c0.078,0.183,0.193,0.336,0.338,0.464l0.416,0.37c0.112,0.102,0.284,0,0.253-0.146l-1.399-7.91 c2.396-0.079,4.712-0.257,6.21-0.497l0.846,1.584c0.096,0.177,0.243,0.337,0.423,0.438l0.578,0.34 c0.124,0.076,0.274-0.035,0.234-0.174L128.905,90.197z" data-delay="1500"/>
	<!-- OCS text logo -->
	<g id="ocsTextLogoOnCar" class="animateItem" data-delay="900">
		<!-- OCS -->
		<path fill="#071549" d="M185.609,61.519c-1.248,0-2.039-1.008-1.748-2.225l2.441-10.194c0.152-0.607,0.782-1.113,1.402-1.113 l6.652-0.002c1.247,0,2.023,1,1.739,2.222l-2.444,10.19c-0.144,0.614-0.775,1.12-1.395,1.12L185.609,61.519 M187.773,58.316 c-0.068,0.276,0.11,0.493,0.384,0.493h1.952c0.14,0,0.275-0.108,0.307-0.25l1.774-7.375c0.067-0.268-0.111-0.498-0.393-0.492 h-1.951c-0.134,0-0.275,0.108-0.306,0.249L187.773,58.316"/>
		<path fill="#071549" d="M202.356,56.099l-0.588,2.455c-0.032,0.132-0.173,0.239-0.314,0.239l-1.948,0.009 c-0.276,0-0.449-0.219-0.388-0.493l1.767-7.376c0.033-0.139,0.171-0.25,0.313-0.25l1.946-0.004c0.283,0,0.455,0.227,0.395,0.501 l-0.475,1.95l3.889-0.004l0.701-2.927c0.297-1.224-0.485-2.229-1.736-2.229l-6.646,0.009c-0.63,0-1.261,0.509-1.406,1.116 l-2.44,10.191c-0.29,1.221,0.496,2.23,1.744,2.23l6.646-0.016c0.621,0,1.255-0.499,1.404-1.113l1.018-4.289H202.356"/>
		<path fill="#071549" d="M213.278,56.229c0.276,0.141,0.418,0.451,0.333,0.809l-0.367,1.508c-0.029,0.131-0.172,0.236-0.31,0.236 l-1.979,0.006c-0.275,0-0.451-0.216-0.392-0.49l0.537-2.207l-3.682,0.008l-0.753,3.169c-0.297,1.228,0.489,2.233,1.733,2.226 h6.65c0.622,0,1.257-0.498,1.399-1.114l0.789-3.282c0.209-0.894-0.143-1.668-0.824-2.02l-4.109-1.847 c-0.273-0.139-0.408-0.446-0.32-0.8l0.35-1.507c0.034-0.14,0.173-0.25,0.315-0.25h1.945c0.281-0.004,0.455,0.223,0.391,0.495 l-0.476,1.951h3.676l0.704-2.928c0.299-1.225-0.485-2.229-1.739-2.227l-6.646,0.004c-0.629,0-1.252,0.504-1.398,1.117 l-0.791,3.289c-0.215,0.883,0.135,1.648,0.826,2.01l4.104,1.844"/>
		<path fill="#071549" d="M184.715,64.509l-0.347,0.736h-0.683l1.452-2.837h0.817l0.348,2.837h-0.667l-0.062-0.736H184.715z M185.549,64.035l-0.062-0.602c-0.008-0.155-0.026-0.384-0.037-0.557h-0.009c-0.077,0.173-0.166,0.395-0.238,0.557l-0.299,0.602 H185.549z"/>
		<!-- ANA GROUP -->
		<path fill="#071549" d="M187.959,65.245l0.567-2.837h0.747l0.396,1.08c0.119,0.36,0.197,0.649,0.269,0.968h0.014 c0.018-0.292,0.058-0.605,0.138-1.022l0.201-1.025h0.604l-0.57,2.837h-0.661l-0.416-1.137c-0.134-0.384-0.209-0.642-0.291-0.99 h-0.016c-0.029,0.279-0.095,0.684-0.188,1.13l-0.198,0.997H187.959z"/>
		<path fill="#071549" d="M193.063,64.509l-0.348,0.736h-0.686l1.454-2.837h0.817l0.349,2.837h-0.672l-0.057-0.736H193.063z M193.895,64.035l-0.064-0.602c-0.005-0.155-0.023-0.384-0.038-0.557h-0.009c-0.075,0.173-0.161,0.395-0.234,0.557l-0.299,0.602 H193.895z"/>
		<path fill="#071549" d="M200.08,65.118c-0.176,0.068-0.493,0.155-0.844,0.155c-0.419,0-0.752-0.116-0.975-0.354 c-0.227-0.239-0.299-0.549-0.299-0.827c0-0.471,0.198-0.969,0.582-1.295c0.319-0.269,0.753-0.424,1.227-0.424 c0.368,0,0.617,0.083,0.704,0.134l-0.126,0.294c-0.146-0.076-0.35-0.123-0.619-0.123c-0.357,0-0.682,0.123-0.932,0.348 c-0.279,0.245-0.443,0.652-0.443,1.037c0,0.546,0.287,0.912,0.95,0.912c0.177,0,0.344-0.035,0.451-0.08l0.176-0.848h-0.609 l0.059-0.286h0.966L200.08,65.118z"/>
		<path fill="#071549" d="M202.533,62.448c0.178-0.04,0.426-0.066,0.65-0.066c0.293,0,0.556,0.072,0.712,0.208 c0.142,0.116,0.227,0.274,0.227,0.467c0,0.417-0.338,0.725-0.713,0.823v0.014c0.208,0.063,0.304,0.277,0.33,0.563 c0.024,0.396,0.049,0.672,0.088,0.789h-0.38c-0.015-0.059-0.054-0.361-0.069-0.689c-0.021-0.392-0.173-0.552-0.47-0.552h-0.327 l-0.243,1.241h-0.372L202.533,62.448z M202.642,63.738h0.329c0.462,0,0.758-0.29,0.758-0.64c0-0.297-0.229-0.434-0.57-0.434 c-0.151,0-0.239,0.004-0.312,0.023L202.642,63.738z"/>
		<path fill="#071549" d="M208.388,63.52c0,0.492-0.196,1.036-0.542,1.376c-0.264,0.244-0.616,0.39-1.025,0.39 c-0.771,0-1.131-0.545-1.131-1.15c0-0.501,0.206-1.054,0.568-1.397c0.26-0.229,0.622-0.381,1.003-0.381 C208.063,62.356,208.388,62.915,208.388,63.52z M206.528,62.934c-0.291,0.273-0.451,0.77-0.451,1.17 c0,0.468,0.218,0.894,0.798,0.894c0.254,0,0.501-0.11,0.686-0.285c0.273-0.272,0.439-0.778,0.439-1.177 c0-0.406-0.134-0.883-0.791-0.883C206.943,62.652,206.713,62.762,206.528,62.934z"/>
		<path fill="#071549" d="M210.835,62.408l-0.337,1.673c-0.025,0.12-0.042,0.243-0.042,0.358c0,0.362,0.224,0.547,0.558,0.547 c0.407,0,0.701-0.259,0.829-0.898l0.348-1.68h0.368l-0.345,1.69c-0.174,0.852-0.617,1.187-1.251,1.187 c-0.49,0-0.87-0.246-0.87-0.83c0-0.124,0.017-0.267,0.039-0.396l0.332-1.651H210.835z"/>
		<path fill="#071549" d="M214.547,62.448c0.16-0.039,0.397-0.066,0.645-0.066c0.286,0,0.565,0.072,0.729,0.225 c0.146,0.119,0.223,0.281,0.223,0.508c0,0.319-0.164,0.588-0.362,0.742c-0.232,0.179-0.566,0.27-0.905,0.27 c-0.116,0-0.214-0.012-0.306-0.022l-0.224,1.142h-0.362L214.547,62.448z M214.629,63.813c0.102,0.019,0.188,0.026,0.301,0.026 c0.5,0,0.836-0.3,0.836-0.698c0-0.34-0.248-0.477-0.593-0.477c-0.143,0-0.258,0.014-0.32,0.032L214.629,63.813z"/>
	</g>
	<!-- OCS img logo -->
	<g id="ocsImgLogoOnCar" class="animateItem" data-delay="700">
		<linearGradient id="ocs_box_head01" gradientUnits="userSpaceOnUse" x1="103.2051" y1="41.2036" x2="130.8453" y2="56.93">
			<stop offset="0" style="stop-color:#00B7E2"/>
			<stop offset="0.0672" style="stop-color:#05A8D9"/>
			<stop offset="0.2658" style="stop-color:#1181C1"/>
			<stop offset="0.4618" style="stop-color:#1A62AE"/>
			<stop offset="0.6522" style="stop-color:#214CA1"/>
			<stop offset="0.8346" style="stop-color:#253F99"/>
			<stop offset="1" style="stop-color:#263A96"/>
		</linearGradient>
		<path fill="url(#ocs_box_head01)" d="M119.287,54.336c-0.14,0-0.346-0.025-0.538-0.147l-11.724-7.101 c-0.229-0.135-0.37-0.371-0.371-0.625c-0.001-0.256,0.139-0.493,0.374-0.634l5.185-3.05c0.189-0.112,0.39-0.136,0.524-0.136 c0.137,0,0.341,0.025,0.531,0.143l12.146,7.01c0.246,0.149,0.382,0.375,0.383,0.627c0.001,0.253-0.133,0.481-0.367,0.627 l-5.632,3.16C119.649,54.293,119.473,54.336,119.287,54.336z"/>
		<path fill="#FFFFFF" d="M112.737,43.216c0.085,0,0.169,0.019,0.231,0.057l12.161,7.019c0.129,0.078,0.129,0.192,0,0.272 l-5.61,3.146c-0.064,0.036-0.148,0.054-0.231,0.054c-0.085,0-0.17-0.02-0.232-0.059l-11.732-7.107 c-0.13-0.077-0.125-0.204,0-0.278l5.181-3.047C112.567,43.235,112.652,43.216,112.737,43.216 M112.737,42.071 c-0.296,0-0.58,0.075-0.82,0.218l-5.175,3.044c-0.418,0.251-0.662,0.672-0.66,1.132c0.002,0.459,0.248,0.877,0.659,1.12 l11.721,7.1c0.225,0.143,0.517,0.224,0.826,0.224c0.283,0,0.556-0.069,0.79-0.199l5.612-3.147l0.022-0.013l0.022-0.014 c0.401-0.25,0.64-0.667,0.637-1.116s-0.245-0.863-0.648-1.108l-12.182-7.031C113.328,42.149,113.04,42.071,112.737,42.071 L112.737,42.071z"/>
		<linearGradient id="ocs_box_head02" gradientUnits="userSpaceOnUse" x1="100.1626" y1="47.0166" x2="127.739" y2="62.7066">
			<stop offset="0" style="stop-color:#00B7E2"/>
			<stop offset="0.0672" style="stop-color:#05A8D9"/>
			<stop offset="0.2658" style="stop-color:#1181C1"/>
			<stop offset="0.4618" style="stop-color:#1A62AE"/>
			<stop offset="0.6522" style="stop-color:#214CA1"/>
			<stop offset="0.8346" style="stop-color:#253F99"/>
			<stop offset="1" style="stop-color:#263A96"/>
		</linearGradient>
		<path fill="url(#ocs_box_head02)" d="M112.967,58.212c-0.195,0-0.379-0.049-0.533-0.143l-12.152-7.01 c-0.25-0.155-0.384-0.384-0.383-0.637c0.001-0.252,0.137-0.479,0.373-0.621l5.36-3.149c0.15-0.09,0.333-0.138,0.524-0.138 c0.194,0,0.377,0.05,0.531,0.144l11.771,7.166c0.22,0.118,0.369,0.355,0.373,0.619c0.003,0.265-0.141,0.507-0.386,0.647 l-4.949,2.982C113.349,58.162,113.164,58.212,112.967,58.212z"/>
		<path fill="#FFFFFF" d="M106.156,47.086c0.083,0,0.167,0.02,0.231,0.06l11.773,7.167c0.13,0.07,0.13,0.205,0,0.28l-4.96,2.988 c-0.064,0.04-0.148,0.06-0.233,0.06s-0.17-0.02-0.236-0.06l-12.163-7.017c-0.129-0.08-0.129-0.194,0-0.272l5.354-3.146 C105.987,47.106,106.072,47.086,106.156,47.086 M106.156,45.941c-0.295,0-0.58,0.077-0.822,0.222l-5.346,3.141 c-0.417,0.252-0.659,0.667-0.662,1.116s0.236,0.867,0.637,1.116l12.195,7.036c0.221,0.134,0.508,0.213,0.808,0.213 c0.304,0,0.594-0.081,0.838-0.233l4.946-2.979c0.4-0.229,0.658-0.67,0.652-1.139c-0.006-0.454-0.258-0.875-0.662-1.109 l-11.758-7.157C106.743,46.021,106.456,45.941,106.156,45.941L106.156,45.941z"/>
		<linearGradient id="ocs_box_side01" gradientUnits="userSpaceOnUse" x1="95.2632" y1="55.6982" x2="122.5028" y2="71.1967">
			<stop offset="0" style="stop-color:#00B7E2"/>
			<stop offset="0.0672" style="stop-color:#05A8D9"/>
			<stop offset="0.2658" style="stop-color:#1181C1"/>
			<stop offset="0.4618" style="stop-color:#1A62AE"/>
			<stop offset="0.6522" style="stop-color:#214CA1"/>
			<stop offset="0.8346" style="stop-color:#253F99"/>
			<stop offset="1" style="stop-color:#263A96"/>
		</linearGradient>
		<path fill="url(#ocs_box_side01)" d="M111.891,72.396c-0.127,0-0.252-0.033-0.372-0.097l-11.47-6.653 c-0.306-0.183-0.516-0.554-0.516-0.905V52.025c0-0.421,0.301-0.738,0.699-0.738c0.139,0,0.279,0.041,0.405,0.119l11.443,6.72 c0.304,0.179,0.515,0.55,0.515,0.902v12.625C112.596,72.076,112.293,72.396,111.891,72.396z"/>
		<path fill="#FFFFFF" d="M100.232,51.859c0.031,0,0.067,0.011,0.104,0.034l11.454,6.727c0.131,0.077,0.232,0.261,0.232,0.409 v12.625c0,0.107-0.053,0.17-0.132,0.17c-0.03,0-0.064-0.009-0.101-0.029l-11.454-6.644c-0.126-0.076-0.23-0.259-0.23-0.41V52.025 C100.106,51.921,100.158,51.859,100.232,51.859 M100.232,50.714L100.232,50.714c-0.713,0-1.271,0.576-1.271,1.311v12.716 c0,0.551,0.316,1.111,0.787,1.393l11.467,6.651c0.234,0.126,0.456,0.183,0.675,0.183c0.716,0,1.277-0.578,1.277-1.315V59.028 c0-0.554-0.32-1.114-0.796-1.395l-11.456-6.728C100.722,50.785,100.478,50.714,100.232,50.714L100.232,50.714z"/>
		<path id="dolphin" fill="#FFFFFF" d="M109.151,66.96l-0.327-1.256l0.174,0.079c0.121-0.058,0.194-0.187,0.189-0.23 c-0.009-0.033-0.316-0.596-0.316-0.596l0.544-0.381l0,0c0,0,1.364-0.753,1.405-0.774c0.037-0.025,0.017-0.111,0.017-0.111 s-0.125-0.138-0.229-0.287c-0.11-0.154-0.148-0.134-0.179-0.129c-0.035,0-2.233,0.108-2.353,0.118 c-0.13,0.011-0.238,0.048-0.298-0.002c0,0-0.759-1.055-0.892-1.2c-0.118-0.139-0.878-1.055-0.884-1.082 c-0.009,0,1.884-0.128,1.884-0.128s0.035-0.003,0.044-0.027c0.017-0.021-0.206-0.197-0.253-0.222 c-0.043-0.03-2.398-0.716-2.431-0.719c-0.026,0-0.136-0.054-0.164-0.082c-0.033-0.018-1.05-1.283-1.367-1.678 c-0.318-0.399-1.003-1.275-1.395-1.597c-0.39-0.328-0.588-0.366-0.676-0.328c-0.082,0.038-0.151,0.03-0.151,0.03 s-0.099-0.009-0.155-0.009c-0.047,0-0.106,0.12-0.104,0.166c0.005,0.044,0,0.225,0.086,0.509c0.08,0.276,0.141,0.4,0.412,0.792 c0.273,0.395,1.167,1.479,1.184,1.483c0.021,0.012,0.074,0.16,0.097,0.188c0.019,0.024,0.194,0.48,0.21,0.545 c0.01,0.056,0,0.169-0.017,0.164c-0.011-0.003-0.151-0.139-0.151-0.139s-0.289-0.315-0.333-0.346 c-0.039-0.037-0.252,0.017-0.388,0.188c-0.137,0.175-0.16,0.388-0.133,0.504c0.026,0.117,0.526,0.557,0.567,0.592 c0.052,0.034,0.168-0.037,0.168-0.037s0.133,0.111,0.147,0.115c0.008,0.005,0.039-0.025,0.039-0.025l0.177,0.096 c0,0-0.176-0.079-0.159-0.083c0.005-0.012,0.046,0.019,0.046,0.019s0.35,2.313,0.34,2.361c0,0.029,0.239,0.677,0.239,0.677 s0.034,0,0.04-0.023c0.009-0.011,0.572-2.198,0.583-2.204c0.024-0.024,0.172-0.046,0.172-0.046s0.878,0.897,1.475,1.563 c0.586,0.67,2.135,1.877,2.135,1.877s0.551,1.294,0.576,1.322c0.021,0.03,0.34,0.356,0.369,0.376 C109.151,66.999,109.151,66.96,109.151,66.96z"/>
		<linearGradient id="ocs_box_side02" gradientUnits="userSpaceOnUse" x1="97.9795" y1="49.6475" x2="125.687" y2="65.4121">
			<stop offset="0" style="stop-color:#00B7E2"/>
			<stop offset="0.0672" style="stop-color:#05A8D9"/>
			<stop offset="0.2658" style="stop-color:#1181C1"/>
			<stop offset="0.4618" style="stop-color:#1A62AE"/>
			<stop offset="0.6522" style="stop-color:#214CA1"/>
			<stop offset="0.8346" style="stop-color:#253F99"/>
			<stop offset="1" style="stop-color:#263A96"/>
		</linearGradient>
		<path fill="url(#ocs_box_side02)" d="M113.581,72.396c-0.397,0-0.709-0.326-0.709-0.743V59.028c0-0.344,0.209-0.713,0.508-0.896 l11.464-6.732c0.13-0.075,0.263-0.113,0.398-0.113c0.397,0,0.696,0.317,0.696,0.738v12.716c0,0.353-0.214,0.724-0.52,0.903 l-11.452,6.645C113.84,72.36,113.709,72.396,113.581,72.396z"/>
		<path fill="#FFFFFF" d="M125.242,51.859c0.076,0,0.124,0.062,0.124,0.166v12.716c0,0.151-0.108,0.334-0.237,0.41l-11.449,6.644 c-0.035,0.02-0.068,0.029-0.099,0.029c-0.079,0-0.136-0.063-0.136-0.17V59.028c0-0.147,0.109-0.332,0.235-0.409l11.455-6.727 C125.173,51.87,125.21,51.859,125.242,51.859 M125.242,50.714c-0.234,0-0.47,0.065-0.682,0.188l-11.46,6.73 c-0.486,0.299-0.8,0.855-0.8,1.396v12.625c0,0.737,0.563,1.315,1.281,1.315c0.227,0,0.454-0.061,0.659-0.175l11.464-6.652 c0.485-0.285,0.807-0.846,0.807-1.4V52.025C126.51,51.29,125.953,50.714,125.242,50.714L125.242,50.714z"/>
		<!-- 白地球 -->
		<defs>
			<polygon id="sample_earth" points="125.365,51.753 113.444,58.757 113.444,71.925 125.365,65.021"/>
		</defs>
		<clipPath id="clip_earth">
			<use xlink:href="#sample_earth" overflow="visible"/>
		</clipPath>
		<g clip-path="url(#clip_earth)">
			<path fill="#FFFFFF" d="M119.491,69.774c-3.551-1.156-5.545-5.151-4.458-8.903c1.085-3.749,4.861-5.868,8.405-4.709 c3.546,1.151,5.538,5.142,4.458,8.894C126.804,68.806,123.033,70.925,119.491,69.774z M123.403,56.292 c-3.481-1.121-7.17,0.953-8.239,4.621c-1.068,3.683,0.896,7.586,4.366,8.714c3.471,1.134,7.167-0.94,8.233-4.606 C128.83,61.338,126.871,57.429,123.403,56.292z"/>
			<path fill="#FFFFFF" d="M120.828,65.166c-3.204-1.047-6.278-2.94-5.872-4.325c0.393-1.373,3.939-1.112,7.147-0.081 c3.202,1.046,6.275,2.941,5.871,4.325C127.58,66.459,124.025,66.206,120.828,65.166z M122.006,61.075 c-3.711-1.206-6.494-1.042-6.761-0.133c-0.263,0.918,1.956,2.703,5.671,3.907c3.716,1.219,6.501,1.049,6.762,0.131 C127.942,64.078,125.732,62.292,122.006,61.075z"/>
			<path fill="#FFFFFF" d="M119.48,69.803c-1.141-0.37-1.16-3.667-0.046-7.497c1.117-3.831,2.882-6.555,4.02-6.18 c1.135,0.368,1.154,3.662,0.033,7.5C122.379,67.462,120.614,70.176,119.48,69.803z M123.383,56.329 c-0.983-0.317-2.712,2.445-3.756,6.042c-1.038,3.589-1.081,6.899-0.09,7.227c0.993,0.317,2.714-2.444,3.759-6.035 C124.336,59.966,124.379,56.657,123.383,56.329z"/>
			<path fill="#FFFFFF" d="M121.97,61.244c-2.72-0.877-5.334-2.406-5.031-3.438c0.293-1.026,3.27-0.733,5.978,0.156 c2.707,0.876,5.332,2.398,5.027,3.432C127.654,62.424,124.672,62.13,121.97,61.244z M122.86,58.164 c-3.18-1.031-5.525-0.982-5.729-0.284c-0.203,0.69,1.712,2.121,4.886,3.151c3.185,1.039,5.532,0.997,5.73,0.294 C127.952,60.634,126.033,59.199,122.86,58.164z"/>
			<path fill="#FFFFFF" d="M120,67.992c-2.704-0.875-5.328-2.404-5.031-3.432c0.302-1.033,3.281-0.738,5.991,0.144 c2.704,0.88,5.327,2.405,5.031,3.44C125.686,69.175,122.711,68.877,120,67.992z M120.901,64.915 c-3.176-1.033-5.526-0.982-5.726-0.292c-0.206,0.69,1.715,2.131,4.888,3.164s5.523,0.98,5.724,0.288 C125.992,67.382,124.069,65.947,120.901,64.915z"/>
			<path fill="#FFFFFF" d="M122.797,58.381c-1.452-0.47-2.44-1.32-2.259-1.942c0.185-0.617,1.452-0.733,2.893-0.263 c1.444,0.475,2.436,1.322,2.262,1.943C125.514,58.734,124.235,58.85,122.797,58.381z M123.398,56.324 c-1.335-0.432-2.576-0.357-2.728,0.162c-0.151,0.519,0.834,1.32,2.166,1.754c1.319,0.431,2.573,0.354,2.723-0.166 C125.714,57.554,124.719,56.748,123.398,56.324z"/>
			<path fill="#FFFFFF" d="M119.491,69.774c-1.447-0.477-2.443-1.324-2.26-1.947c0.173-0.61,1.448-0.724,2.896-0.253 c1.444,0.466,2.436,1.319,2.259,1.932C122.208,70.126,120.922,70.242,119.491,69.774z M120.088,67.712 c-1.332-0.433-2.572-0.358-2.727,0.16c-0.155,0.525,0.838,1.332,2.168,1.754c1.322,0.435,2.574,0.359,2.721-0.158 C122.404,68.943,121.416,68.14,120.088,67.712z"/>
			<path fill="#FFFFFF" d="M116.516,67.791c-0.747-0.773-0.685-3.461,0.163-6.375c0.854-2.931,2.216-5.193,3.242-5.391l0.045,0.209 c-0.942,0.185-2.269,2.436-3.083,5.237c-0.821,2.805-0.911,5.455-0.227,6.164L116.516,67.791z"/>
			<path fill="#FFFFFF" d="M123,69.904l-0.039-0.222c0.941-0.176,2.27-2.424,3.088-5.227c0.807-2.804,0.902-5.448,0.216-6.163 l0.152-0.161c0.747,0.78,0.679,3.467-0.173,6.391C125.395,67.442,124.032,69.708,123,69.904z"/>
		</g>
	</g>
<style>
g#drawCarLine {stroke-dashoffset:550; stroke-dasharray:550; opacity:0;}
g#drawCarLine.active {stroke-dashoffset:0; opacity:1; transition:stroke-dashoffset 1s cubic-bezier(0.215, 0.61, 0.355, 1), opacity 0s linear;}
g#ocsImgLogoOnCar {fill-opacity:0; transform:translate(-30%, -35%) scale(1.8);}
g#ocsImgLogoOnCar.active {fill-opacity:1; transform:none; transition:all .3s cubic-bezier(0.215, 0.61, 0.355, 1);}
g#ocsTextLogoOnCar {fill-opacity:0; transform:translate(-58%, -35%) scale(1.8);}
g#ocsTextLogoOnCar.active {fill-opacity:1; transform:none; transition:all .3s cubic-bezier(0.215, 0.61, 0.355, 1);}
line#airplaneLine {stroke-dashoffset:95; stroke-dasharray:95;}
line#airplaneLine.active {stroke-dashoffset:0; transition:all .8s cubic-bezier(0.215, 0.61, 0.355, 1);}
path#airplaneImg {fill-opacity:0;}
path#airplaneImg.active {fill-opacity:1; transition:all .8s cubic-bezier(0.215, 0.61, 0.355, 1);}
g#tire {transform:translate(0px, 0.5px);}
g#tire.active {animation:tireAnimate .5s cubic-bezier(0.215, 0.61, 0.355, 1) infinite alternate;}
g#carSpeedLine {opacity:0; stroke-dashoffset:31; stroke-dasharray:31;}
g#carSpeedLine.active {animation:carSpeedLineAnimate .5s cubic-bezier(0.215, 0.61, 0.355, 1) infinite alternate; opacity:1;}
@keyframes tireAnimate {
	0%, 100% 	{transform:translate(0px, 1px);}
	25% 		{transform:translate(1px, 1.5px);}
}
@keyframes carSpeedLineAnimate {
	0%, 100% 	{stroke-dashoffset:31; transform:translate(0px, .7px);}
	45% 		{stroke-dashoffset:2; transform:translate(.5px, .9px);}
}
</style>
</svg>