<?xml version="1.0" encoding="utf-8"?>
<!-- Generator: Adobe Illustrator 16.0.0, SVG Export Plug-In . SVG Version: 6.00 Build 0)  -->
<!DOCTYPE svg PUBLIC "-//W3C//DTD SVG 1.1//EN" "http://www.w3.org/Graphics/SVG/1.1/DTD/svg11.dtd">
<svg version="1.1" xmlns="http://www.w3.org/2000/svg" xmlns:xlink="http://www.w3.org/1999/xlink" x="0px" y="0px"
	 width="249.335px" height="166.81px" viewBox="0 0 249.335 166.81" enable-background="new 0 0 249.335 166.81"
	 xml:space="preserve">
<g id="電腦1">
	<path fill="none" stroke="#071549" stroke-width="3" stroke-miterlimit="10" d="M224.5,123.352c0,5.053-4.096,9.148-9.148,9.148
		H32.648c-5.053,0-9.148-4.096-9.148-9.148V27.648c0-5.053,4.096-9.148,9.148-9.148h182.703c5.053,0,9.148,4.096,9.148,9.148
		V123.352z"/>
</g>
<g id="電腦2">
	<path fill="none" stroke="#071549" stroke-width="3" stroke-miterlimit="10" d="M215.5,110.353c0,5.052-4.096,9.147-9.148,9.147
		H46.648c-5.053,0-9.148-4.096-9.148-9.147V43.647c0-5.052,4.096-9.147,9.148-9.147h159.703c5.053,0,9.148,4.096,9.148,9.147
		V110.353z"/>
</g>
<g id="電腦3">
	<path fill="none" stroke="#071549" stroke-width="3" stroke-miterlimit="10" d="M233.5,139.972c0,3.605-2.923,6.528-6.529,6.528
		H22.029c-3.606,0-6.529-2.923-6.529-6.528v-0.943c0-3.605,2.923-6.528,6.529-6.528h204.941c3.606,0,6.529,2.923,6.529,6.528
		V139.972z"/>
</g>
<g id="箭頭">
	<g>
		<path fill="#071549" d="M204.732,139.464c-0.375,0-0.735-0.212-0.905-0.574l-4.958-10.535l-5.648,4.384
			c-0.179,0.139-0.395,0.21-0.613,0.21c-0.143,0-0.286-0.03-0.42-0.093c-0.339-0.157-0.563-0.49-0.579-0.864l-1.268-29.037
			c-0.018-0.4,0.206-0.773,0.568-0.946c0.137-0.065,0.285-0.098,0.431-0.098c0.239,0,0.475,0.085,0.662,0.25l21.195,18.701
			c0.27,0.238,0.391,0.603,0.317,0.955c-0.074,0.352-0.331,0.638-0.674,0.747l-7.414,2.375l5.084,10.807
			c0.113,0.24,0.126,0.515,0.036,0.765s-0.275,0.453-0.516,0.566l-4.875,2.291C205.02,139.434,204.875,139.464,204.732,139.464z"/>
		<g>
			<path fill="#FFFFFF" d="M191.34,102.911l21.195,18.701l-8.498,2.723l5.569,11.838l-4.875,2.291l-5.489-11.665l-6.635,5.149
				L191.34,102.911 M191.339,100.911c-0.292,0-0.587,0.064-0.862,0.195c-0.724,0.346-1.171,1.091-1.136,1.892l1.268,29.037
				c0.033,0.747,0.479,1.414,1.158,1.728c0.268,0.124,0.555,0.185,0.84,0.185c0.437,0,0.87-0.143,1.227-0.42l4.662-3.619
				l4.426,9.406c0.341,0.724,1.06,1.149,1.811,1.149c0.285,0,0.574-0.061,0.849-0.19l4.875-2.291
				c0.48-0.226,0.851-0.633,1.031-1.132c0.18-0.5,0.154-1.049-0.072-1.53l-4.6-9.777l6.329-2.027c0.685-0.22,1.2-0.791,1.347-1.495
				c0.147-0.705-0.095-1.434-0.634-1.91l-21.195-18.701C192.29,101.083,191.817,100.911,191.339,100.911L191.339,100.911z"/>
		</g>
	</g>
</g>
<g id="點擊">
	
		<line fill="none" stroke="#071549" stroke-width="2" stroke-linecap="round" stroke-linejoin="round" stroke-miterlimit="10" x1="194.017" y1="99.957" x2="197.682" y2="94.03"/>
	
		<line fill="none" stroke="#071549" stroke-width="2" stroke-linecap="round" stroke-linejoin="round" stroke-miterlimit="10" x1="195.275" y1="102.531" x2="203.365" y2="100.976"/>
	
		<line fill="none" stroke="#071549" stroke-width="2" stroke-linecap="round" stroke-linejoin="round" stroke-miterlimit="10" x1="190.357" y1="99.979" x2="188.975" y2="92.79"/>
	
		<line fill="none" stroke="#071549" stroke-width="2" stroke-linecap="round" stroke-linejoin="round" stroke-miterlimit="10" x1="188.383" y1="101.483" x2="180.425" y2="98.836"/>
	
		<line fill="none" stroke="#071549" stroke-width="2" stroke-linecap="round" stroke-linejoin="round" stroke-miterlimit="10" x1="188.637" y1="104.522" x2="181.551" y2="106.605"/>
</g>
<g id="電腦4">
	<circle fill="#071549" cx="108.949" cy="26.814" r="1.646"/>
	<path fill="#071549" d="M155,26.667c0,0.736-0.597,1.333-1.333,1.333h-38.334c-0.736,0-1.333-0.597-1.333-1.333v-0.334
		c0-0.736,0.597-1.333,1.333-1.333h38.334c0.736,0,1.333,0.597,1.333,1.333V26.667z"/>
</g>
<g id="logo">
	<g>
		<g>
			<polygon fill="#FF671B" points="156.479,65.105 192.322,62.519 192.322,67.906 			"/>
		</g>
		<g>
			<g>
				<g>
					<g>
						<path fill="#58595B" d="M142.618,72.823h-7.147v-1.89c0-0.882-0.09-1.445-0.274-1.688c-0.183-0.24-0.487-0.361-0.913-0.361
							c-0.463,0-0.814,0.164-1.053,0.489c-0.236,0.325-0.355,0.818-0.355,1.481c0,0.853,0.133,1.493,0.4,1.923
							c0.257,0.431,0.98,0.95,2.176,1.56c3.426,1.751,5.583,3.188,6.473,4.312c0.888,1.123,1.334,2.936,1.334,5.435
							c0,1.815-0.248,3.155-0.74,4.015c-0.494,0.861-1.445,1.583-2.861,2.168c-1.414,0.58-3.059,0.873-4.934,0.873
							c-2.062,0-3.818-0.336-5.275-1.008c-1.455-0.672-2.41-1.529-2.86-2.568c-0.452-1.039-0.677-2.515-0.677-4.425v-1.67h7.148
							v3.104c0,0.956,0.1,1.568,0.301,1.842c0.202,0.273,0.557,0.409,1.068,0.409s0.893-0.174,1.145-0.521
							c0.248-0.346,0.374-0.859,0.374-1.541c0-1.503-0.238-2.483-0.714-2.946c-0.486-0.462-1.688-1.233-3.602-2.314
							c-1.912-1.094-3.18-1.884-3.801-2.379c-0.623-0.493-1.137-1.175-1.547-2.046c-0.406-0.874-0.611-1.985-0.611-3.34
							c0-1.953,0.29-3.381,0.869-4.284c0.579-0.904,1.514-1.609,2.807-2.119c1.29-0.51,2.852-0.764,4.68-0.764
							c1.998,0,3.701,0.279,5.109,0.836s2.34,1.257,2.796,2.102c0.458,0.846,0.686,2.281,0.686,4.308V72.823z"/>
					</g>
					<g>
						<path fill="#58595B" d="M152.836,65.105v5.737c0.635-0.506,1.321-0.885,2.058-1.139c0.738-0.251,1.527-0.378,2.367-0.378
							c1.293,0,2.391,0.284,3.3,0.851c0.908,0.568,1.463,1.222,1.664,1.961c0.201,0.74,0.301,2.093,0.301,4.057v14.41h-7.386V75.894
							c0-1.217-0.067-2.001-0.209-2.347c-0.14-0.346-0.454-0.52-0.942-0.52c-0.45,0-0.755,0.179-0.913,0.535
							c-0.159,0.358-0.239,1.066-0.239,2.126v14.916h-7.383V65.105H152.836z"/>
					</g>
					<g>
						<path fill="#58595B" d="M172.671,69.704v20.9h-7.604v-20.9H172.671z"/>
					</g>
					<g>
						<path fill="#58595B" d="M182.835,69.704l-0.128,1.846c0.658-0.745,1.382-1.304,2.176-1.671
							c0.793-0.369,1.658-0.553,2.596-0.553c1.145,0,2.135,0.265,2.972,0.795c0.834,0.53,1.354,1.143,1.562,1.836
							c0.208,0.692,0.311,1.87,0.311,3.527v8.804c0,1.9-0.131,3.252-0.392,4.054c-0.264,0.804-0.8,1.445-1.609,1.925
							c-0.812,0.477-1.788,0.715-2.935,0.715c-0.913,0-1.761-0.183-2.541-0.553c-0.78-0.368-1.492-0.916-2.139-1.641v4.791h-7.385
							V69.704H182.835z M184.938,75.783c0-1.292-0.055-2.073-0.164-2.346c-0.109-0.273-0.414-0.41-0.916-0.41
							c-0.486,0-0.799,0.158-0.939,0.472c-0.141,0.315-0.211,1.077-0.211,2.284v8.664c0,1.259,0.072,2.046,0.219,2.361
							c0.146,0.314,0.465,0.472,0.951,0.472c0.477,0,0.771-0.145,0.888-0.434c0.114-0.288,0.173-0.989,0.173-2.103V75.783z"/>
					</g>
				</g>
			</g>
			<g>
				<g>
					<path fill="#FF671B" d="M122.549,69.173v12.516c0,2.027-0.078,3.453-0.23,4.276c-0.154,0.823-0.609,1.665-1.363,2.532
						c-0.757,0.865-1.752,1.521-2.986,1.968c-1.236,0.446-2.693,0.67-4.369,0.67c-1.857,0-3.496-0.266-4.918-0.794
						c-1.42-0.53-2.482-1.219-3.188-2.068c-0.703-0.849-1.12-1.746-1.248-2.689c-0.127-0.942-0.191-2.926-0.191-5.947V69.173h8.085
						v14.699c0,1.17,0.074,1.917,0.22,2.242c0.148,0.325,0.445,0.487,0.894,0.487c0.511,0,0.843-0.179,0.989-0.538
						c0.147-0.357,0.22-1.205,0.22-2.539V69.173H122.549z"/>
				</g>
			</g>
			<g>
				<g>
					<g>
						<polygon fill="#FF671B" points="60.951,67.954 76.305,59.423 91.656,67.954 91.656,85.019 76.305,93.548 60.951,85.019 						
							"/>
					</g>
					<g>
						<polygon fill="#FFFFFF" points="71.649,64.504 71.649,73.537 67.022,76.121 67.022,67.085 63.246,69.19 63.246,82.802 
							75.53,75.99 75.53,62.341 						"/>
					</g>
					<g>
						<polygon fill="#FFFFFF" points="89.459,78.546 81.341,74.007 81.322,68.856 89.456,73.405 89.456,69.167 77.168,62.354 
							77.206,76.021 89.459,82.813 						"/>
					</g>
					<g>
						<polygon fill="#FFFFFF" points="79.357,89.345 83.13,87.237 74.973,82.728 76.546,81.845 84.708,86.358 88.58,84.193 
							76.293,77.329 64.025,84.175 68.211,86.498 71.301,84.772 						"/>
					</g>
				</g>
				<g>
					<path fill="#FF671B" d="M91.902,91.588c0.533,0,0.977-0.429,0.977-0.942c0-0.598-0.443-1.024-0.977-1.024
						c-0.621,0-1.064,0.427-1.064,1.024C90.838,91.159,91.281,91.588,91.902,91.588L91.902,91.588z M91.902,91.842
						c-0.707,0-1.329-0.598-1.329-1.196c0-0.684,0.622-1.279,1.329-1.279c0.711,0,1.242,0.596,1.242,1.279
						C93.145,91.244,92.613,91.842,91.902,91.842z"/>
					<path fill="#FF671B" d="M91.281,91.329v-1.536h0.709c0.092,0,0.18,0,0.268,0.084c0.09,0,0.178,0.085,0.178,0.085
						c0.09,0.086,0.09,0.172,0.09,0.258c0,0.084-0.09,0.256-0.09,0.256c-0.088,0.086-0.178,0.17-0.354,0.17
						c0.088,0,0.088,0.084,0.088,0.084c0.088,0.088,0.178,0.088,0.178,0.172l0.266,0.428h-0.266l-0.178-0.256
						c0-0.172-0.088-0.172-0.088-0.256c-0.092,0-0.092-0.088-0.18-0.088c0,0,0-0.084-0.086-0.084c0,0,0,0-0.092,0h-0.176v0.684
						H91.281L91.281,91.329z M91.549,90.476h0.354c0.088,0,0.18,0,0.268,0l0.088-0.084c0-0.088,0.09-0.088,0.09-0.172
						c0-0.086-0.09-0.086-0.09-0.172c-0.088,0-0.176-0.086-0.268-0.086h-0.441V90.476z"/>
				</g>
			</g>
		</g>
	</g>
</g>
</svg>
