<?xml version="1.0" encoding="utf-8"?>
<!-- Generator: Adobe Illustrator 16.0.0, SVG Export Plug-In . SVG Version: 6.00 Build 0)  -->
<!DOCTYPE svg PUBLIC "-//W3C//DTD SVG 1.1//EN" "http://www.w3.org/Graphics/SVG/1.1/DTD/svg11.dtd">
<svg version="1.1" xmlns="http://www.w3.org/2000/svg" xmlns:xlink="http://www.w3.org/1999/xlink" x="0px" y="0px"
	 width="214.985px" height="230.168px" viewBox="0 0 214.985 230.168" enable-background="new 0 0 214.985 230.168"
	 xml:space="preserve">
<g id="文件二">
	<rect x="28.5" y="24.5" fill="#FFFFFF" stroke="#071549" stroke-width="3" stroke-miterlimit="10" width="164" height="192"/>
</g>
<g id="文件一">
	<rect x="19.5" y="15.5" fill="#FFFFFF" stroke="#071549" stroke-width="3" stroke-miterlimit="10" width="164" height="191"/>
</g>
<g id="完成欄1">
	<rect x="152" y="33" fill="#071549" width="17" height="15"/>
</g>
<g id="完成欄2">
	<rect x="152" y="52" fill="#071549" width="17" height="16"/>
</g>
<g id="完成欄3">
	<rect x="152" y="72" fill="#071549" width="17" height="15"/>
</g>
<g id="完成欄4">
	<rect x="152" y="92" fill="#071549" width="17" height="15"/>
</g>
<g id="完成欄5">
	<rect x="152" y="112" fill="#071549" width="17" height="15"/>
</g>
<g id="完成欄6">
	<rect x="152" y="130" fill="#071549" width="17" height="17"/>
</g>
<g id="完成欄7">
	<rect x="152" y="150" fill="#071549" width="17" height="15"/>
</g>
<g id="完成欄8">
	<rect x="152" y="171" fill="#071549" width="17" height="15"/>
</g>
<g id="進度條8">
	<rect x="38" y="173" fill="#071549" width="106" height="11"/>
</g>
<g id="進度條7">
	<rect x="38" y="152" fill="#071549" width="106" height="12"/>
</g>
<g id="進度條6">
	<rect x="38" y="132" fill="#071549" width="106" height="13"/>
</g>
<g id="進度條1">
	<rect x="38" y="35" fill="#071549" width="42" height="11"/>
</g>
<g id="進度條2">
	<rect x="38" y="55" fill="#071549" width="68" height="10"/>
</g>
<g id="進度條3">
	<rect x="38" y="74" fill="#071549" width="80" height="11"/>
</g>
<g id="進度條4">
	<rect x="38" y="94" fill="#071549" width="90" height="11"/>
</g>
<g id="進度條5">
	<rect x="38" y="113" fill="#071549" width="100" height="12"/>
</g>
</svg>
