<?xml version="1.0" encoding="utf-8"?>
<!-- Generator: Adobe Illustrator 16.0.0, SVG Export Plug-In . SVG Version: 6.00 Build 0)  -->
<!DOCTYPE svg PUBLIC "-//W3C//DTD SVG 1.1//EN" "http://www.w3.org/Graphics/SVG/1.1/DTD/svg11.dtd">
<svg version="1.1" xmlns="http://www.w3.org/2000/svg" xmlns:xlink="http://www.w3.org/1999/xlink" x="0px" y="0px"
	 width="428.928px" height="388.557px" viewBox="0 0 428.928 388.557" enable-background="new 0 0 428.928 388.557"
	 xml:space="preserve">
<g id="圖層_1">
</g>
<g id="UCF">
	<g>
		<g>
			
				<polygon fill="none" stroke="#FFFFFF" stroke-width="4.7371" stroke-linecap="round" stroke-linejoin="round" stroke-miterlimit="10" points="
				41.499,80.747 246.632,149.409 387.047,86.317 181.86,27.868 			"/>
			
				<polygon fill="none" stroke="#FFFFFF" stroke-width="4.7371" stroke-linecap="round" stroke-linejoin="round" stroke-miterlimit="10" points="
				39.771,286.573 41.499,80.747 246.632,149.409 246.679,360.689 			"/>
			
				<polygon fill="none" stroke="#FFFFFF" stroke-width="4.7371" stroke-linecap="round" stroke-linejoin="round" stroke-miterlimit="10" points="
				387.047,86.317 246.632,149.409 246.679,360.689 389.157,285.39 			"/>
		</g>
		
			<line fill="none" stroke="#FFFFFF" stroke-width="5.9214" stroke-miterlimit="10" x1="121.104" y1="50.754" x2="311.416" y2="120.298"/>
	</g>
	<g>
		<g>
			<path fill="#FFFFFF" d="M-219.648,152.156l-2.199,6.755c-0.12,0.373-0.542,0.606-0.935,0.531l-5.521-1.082
				c-0.781-0.153-1.228-0.881-0.984-1.635l6.6-20.301c0.124-0.391,0.542-0.637,0.934-0.559l5.519,1.081
				c0.799,0.158,1.241,0.91,0.998,1.655l-1.757,5.374l11.01,2.157l2.625-8.059c1.092-3.374-0.898-6.703-4.436-7.393l-18.828-3.689
				c-1.778-0.348-3.665,0.764-4.227,2.428l-9.111,28.055c-1.091,3.375,0.917,6.71,4.448,7.4l18.826,3.688
				c1.761,0.348,3.664-0.741,4.206-2.44l3.834-11.814L-219.648,152.156"/>
			<path fill="#FFFFFF" d="M-188.737,158.621c0.74,0.561,1.072,1.522,0.755,2.512l-1.352,4.147
				c-0.122,0.371-0.543,0.604-0.935,0.528l-5.609-1.099c-0.782-0.153-1.222-0.878-0.981-1.631l1.98-6.074l-10.421-2.037
				l-2.828,8.743c-1.11,3.371,0.896,6.706,4.431,7.396l18.834,3.689c1.762,0.347,3.664-0.744,4.206-2.438l2.946-9.047
				c0.789-2.448-0.039-4.882-1.89-6.281l-11.241-7.617c-0.74-0.563-1.068-1.521-0.751-2.491l1.332-4.147
				c0.121-0.385,0.541-0.633,0.935-0.554l5.518,1.08c0.803,0.156,1.243,0.909,1,1.654l-1.76,5.376l10.403,2.039l2.627-8.063
				c1.111-3.369-0.895-6.7-4.434-7.393l-18.83-3.688c-1.778-0.349-3.663,0.762-4.21,2.433l-2.943,9.065
				c-0.809,2.431,0.024,4.85,1.892,6.258l11.238,7.622"/>
			<path fill="#FFFFFF" d="M-268.259,158.463c-3.537-0.695-5.54-4.027-4.454-7.403l9.116-28.052
				c0.564-1.667,2.451-2.777,4.227-2.431l18.828,3.69c3.534,0.689,5.522,4.014,4.433,7.392l-9.115,28.049
				c-0.547,1.7-2.449,2.785-4.206,2.442L-268.259,158.463 M-261.426,150.43c-0.243,0.756,0.201,1.479,0.981,1.632l5.522,1.083
				c0.389,0.074,0.811-0.157,0.933-0.533l6.615-20.305c0.241-0.744-0.203-1.496-1-1.654l-5.521-1.082
				c-0.394-0.075-0.813,0.17-0.934,0.555L-261.426,150.43"/>
		</g>
		<g>
			<path fill="#FFFFFF" d="M-271.43,166.596l-1.15,1.931l-1.932-0.381l4.729-7.38l2.32,0.457l0.375,8.383l-1.905-0.375l-0.004-2.154
				L-271.43,166.596z M-268.972,165.724l-0.044-1.798c0.009-0.457,0.009-1.121,0.009-1.627l-0.025-0.005
				c-0.251,0.456-0.537,1.041-0.797,1.47l-0.975,1.598L-268.972,165.724z"/>
			<path fill="#FFFFFF" d="M-262.406,170.527l2.222-7.872l2.119,0.417l0.881,3.342c0.26,1.11,0.423,2.005,0.555,2.942l0.037,0.009
				c0.102-0.831,0.295-1.706,0.61-2.864l0.802-2.862l1.692,0.333l-2.221,7.873l-1.869-0.367l-0.934-3.502
				c-0.292-1.178-0.462-1.976-0.611-3.018l-0.037-0.007c-0.149,0.785-0.438,1.913-0.785,3.148l-0.78,2.759L-262.406,170.527z"/>
			<path fill="#FFFFFF" d="M-247.794,171.244l-1.152,1.93l-1.931-0.38l4.729-7.379l2.32,0.456l0.375,8.384l-1.906-0.376
				l-0.003-2.157L-247.794,171.244z M-245.337,170.37l-0.042-1.797c0.009-0.453,0.006-1.12,0.007-1.625l-0.025-0.004
				c-0.25,0.455-0.536,1.042-0.797,1.468l-0.974,1.598L-245.337,170.37z"/>
			<path fill="#FFFFFF" d="M-228.058,176.924c-0.504,0.098-1.425,0.163-2.416-0.031c-1.19-0.234-2.095-0.746-2.682-1.563
				c-0.588-0.806-0.733-1.748-0.674-2.551c0.103-1.358,0.774-2.681,1.923-3.416c0.975-0.585,2.225-0.796,3.58-0.53
				c1.027,0.202,1.711,0.571,1.966,0.77l-0.417,0.779c-0.409-0.302-0.977-0.548-1.741-0.699c-1.003-0.194-1.946-0.023-2.695,0.482
				c-0.846,0.561-1.409,1.645-1.493,2.75c-0.119,1.579,0.618,2.787,2.499,3.155c0.503,0.1,0.987,0.095,1.297,0.021l0.673-2.347
				l-1.719-0.338l0.227-0.792l2.732,0.536L-228.058,176.924z"/>
			<path fill="#FFFFFF" d="M-220.526,170.575c0.523-0.018,1.23,0.061,1.858,0.183c0.84,0.164,1.552,0.504,1.974,0.991
				c0.363,0.403,0.567,0.913,0.526,1.473c-0.092,1.2-1.098,1.904-2.187,1.986l-0.015,0.022c0.588,0.313,0.817,0.973,0.817,1.823
				c0.001,1.16,0.006,1.963,0.094,2.313l-1.078-0.213c-0.038-0.178-0.061-1.057-0.053-2.021c0.022-1.141-0.369-1.688-1.209-1.852
				l-0.928-0.182l-0.958,3.435l-1.042-0.201L-220.526,170.575z M-220.505,174.353l0.929,0.184c1.316,0.259,2.232-0.416,2.307-1.397
				c0.064-0.873-0.582-1.409-1.536-1.597c-0.412-0.081-0.679-0.096-0.882-0.087L-220.505,174.353z"/>
			<path fill="#FFFFFF" d="M-204.176,176.935c-0.107,1.421-0.765,2.883-1.842,3.657c-0.793,0.573-1.815,0.804-2.981,0.574
				c-2.184-0.43-3.078-2.223-2.947-3.96c0.108-1.446,0.805-2.925,1.907-3.704c0.778-0.537,1.851-0.758,2.916-0.547
				C-204.84,173.401-204.044,175.187-204.176,176.935z M-209.316,174.209c-0.875,0.633-1.447,1.984-1.532,3.127
				c-0.102,1.337,0.421,2.686,2.077,3.011c0.714,0.143,1.427-0.026,1.992-0.437c0.848-0.62,1.423-1.998,1.509-3.141
				c0.088-1.166-0.197-2.627-2.054-2.994C-208.077,173.629-208.752,173.815-209.316,174.209z"/>
			<path fill="#FFFFFF" d="M-197.007,175.079l-1.317,4.658c-0.089,0.329-0.153,0.673-0.179,1.015
				c-0.079,1.045,0.508,1.704,1.448,1.888c1.155,0.228,2.052-0.361,2.554-2.137l1.331-4.668l1.042,0.203l-1.334,4.707
				c-0.674,2.344-2,3.081-3.794,2.729c-1.393-0.274-2.415-1.212-2.289-2.904c0.026-0.351,0.095-0.745,0.197-1.106l1.3-4.591
				L-197.007,175.079z"/>
			<path fill="#FFFFFF" d="M-186.503,177.267c0.474-0.019,1.155,0.043,1.846,0.178c0.815,0.16,1.577,0.507,2.021,1.038
				c0.375,0.432,0.552,0.959,0.503,1.604c-0.068,0.911-0.592,1.597-1.176,1.939c-0.693,0.406-1.665,0.459-2.618,0.273
				c-0.324-0.063-0.601-0.143-0.86-0.231l-0.886,3.154l-1.028-0.201L-186.503,177.267z M-186.561,181.249
				c0.284,0.12,0.533,0.193,0.835,0.252c1.429,0.28,2.447-0.395,2.534-1.548c0.073-0.984-0.612-1.515-1.577-1.703
				c-0.415-0.082-0.73-0.106-0.923-0.096L-186.561,181.249z"/>
		</g>
		<path fill="#FFFFFF" d="M-163.435,149.17c-0.268,0.105-0.285,0.354-0.039,0.555l23.027,18.914c0.246,0.203,0.663,0.282,0.93,0.176
			l10.285-4.102c0.268-0.104,0.286-0.359,0.045-0.565l-22.242-19.06c-0.24-0.205-0.656-0.293-0.924-0.189L-163.435,149.17z"/>
		<path fill="#FFFFFF" d="M-138.728,139.648c0.267-0.101,0.685-0.022,0.93,0.18l23.028,18.919c0.245,0.2,0.226,0.445-0.044,0.541
			l-11.594,4.174c-0.27,0.097-0.688,0.007-0.929-0.2l-22.159-18.919c-0.242-0.206-0.222-0.458,0.045-0.563L-138.728,139.648z"/>
		<path fill="#FFFFFF" d="M-142.535,170.352l-21.735-18.063c-0.245-0.202-0.528-0.136-0.552,0.166l-1.931,25.68
			c-0.021,0.304,0.26,0.735,0.503,0.938l21.663,17.858c0.244,0.203,0.446,0.118,0.469-0.184l1.916-25.489
			C-142.179,170.958-142.292,170.557-142.535,170.352z M-145.175,180.444c-0.083,0.028-2.91,1.017-2.91,1.017l-1.117,0.558
			c0,0,0.512,1.257,0.521,1.333c0.01,0.075-0.148,0.304-0.408,0.393l-0.337-0.228l0.456,2.662c0,0-0.007,0.073-0.059,0.031
			c-0.052-0.039-0.642-0.829-0.685-0.901c-0.042-0.071-0.941-2.899-0.941-2.899s-2.882-3.048-3.954-4.621
			c-1.074-1.574-2.67-3.724-2.67-3.724s-0.297-0.026-0.354,0.018c-0.015,0.017-1.468,4.205-1.484,4.241
			c-0.018,0.034-0.084,0.025-0.084,0.025s-0.375-1.413-0.361-1.484c0.008-0.072-0.305-4.564-0.324-4.859
			c-0.059-0.041-0.162-0.08-0.154-0.087c0.021-0.016,0.04,0.061,0.04,0.061s0,0.017,0,0.025c0,0.071,0.277,0.156,0.277,0.156
			l-0.309-0.287c0,0-0.051,0.075-0.074,0.063c-0.023-0.014-0.264-0.303-0.264-0.303s-0.239,0.11-0.324,0.023
			c-0.084-0.092-1.002-1.178-1.042-1.424c-0.042-0.25,0.046-0.669,0.343-0.968c0.3-0.297,0.724-0.316,0.802-0.233
			c0.078,0.078,0.604,0.837,0.604,0.837s0.259,0.323,0.281,0.336c0.023,0.016,0.065-0.217,0.048-0.341
			c-0.018-0.119-0.293-1.107-0.332-1.168c-0.041-0.065-0.125-0.386-0.16-0.409c-0.033-0.029-1.646-2.561-2.127-3.462
			c-0.479-0.901-0.564-1.177-0.686-1.767s-0.091-0.963-0.098-1.055c-0.007-0.093,0.139-0.301,0.243-0.283
			c0.107,0.018,0.296,0.065,0.296,0.065s0.129,0.03,0.301,0c0.174-0.026,0.564,0.114,1.29,0.919
			c0.725,0.806,1.948,2.853,2.518,3.775c0.569,0.927,2.392,3.871,2.449,3.928c0.054,0.057,0.263,0.21,0.323,0.23
			c0.063,0.018,4.617,2.309,4.701,2.383s0.499,0.516,0.471,0.55c-0.027,0.038-0.094,0.04-0.094,0.04s-3.758-0.484-3.754-0.473
			c0.005,0.039,1.368,2.193,1.596,2.524c0.224,0.335,1.578,2.77,1.578,2.77c0.108,0.113,0.334,0.091,0.586,0.122
			c0.25,0.034,4.629,0.669,4.687,0.68c0.06,0.006,0.134-0.029,0.328,0.317c0.196,0.344,0.413,0.678,0.413,0.678
			S-145.091,180.422-145.175,180.444z"/>
		<g>
			<path fill="#FFFFFF" d="M-116.106,182.815l0.026-0.34c-0.259-0.077-0.519-0.158-0.787-0.249
				C-116.607,182.42-116.354,182.62-116.106,182.815z"/>
			<path fill="#FFFFFF" d="M-120.042,185.028c-0.453,1.184-0.934,2.302-1.434,3.338c0.975,0.412,1.889,0.75,2.748,1.027l1.404-0.701
				c0.269-0.102,0.209-0.489,0.231-0.792l0.336-4.475c0.038-0.489-1.411-1.266-2.418-1.939
				C-119.501,182.618-119.589,183.838-120.042,185.028z"/>
			<path fill="#FFFFFF" d="M-119.88,189.664c0.047,0.033,0.099,0.074,0.146,0.107l0.077-0.027
				C-119.73,189.717-119.805,189.69-119.88,189.664z"/>
			<path fill="#FFFFFF" d="M-122.361,178.713c1.12,0.607,2.227,1.269,3.284,1.962c0.534-1.986,0.875-3.854,1.004-5.45
				c-0.785-0.22-1.656-0.575-2.553-1.062c-0.9-0.488-1.697-1.037-2.354-1.595c-0.922,1.166-1.881,2.698-2.783,4.484
				C-124.63,177.547-123.482,178.106-122.361,178.713z"/>
			<path fill="#FFFFFF" d="M-120.177,189.94c-0.358-0.273-0.732-0.549-1.133-0.83c-0.146-0.06-0.293-0.118-0.439-0.18
				c-0.359,0.715-0.726,1.389-1.095,2.018L-120.177,189.94z"/>
			<path fill="#FFFFFF" d="M-118.698,180.928c0.195,0.13,0.09,0.203,0.279,0.335c0.74,0.29,1.781,0.599,1.775,0.664l0.395-5.256
				c0.027-0.327-0.991-0.854-1.719-1.318C-118.101,176.979-118.146,178.912-118.698,180.928z"/>
			<path fill="#FFFFFF" d="M-122.015,172.964c0.457,0.327,0.957,0.643,1.49,0.931c0.533,0.29,1.059,0.529,1.566,0.725
				c-0.488-0.289-0.987-0.576-1.514-0.861C-120.999,173.471-121.511,173.215-122.015,172.964z"/>
			<path fill="#FFFFFF" d="M-122.665,172.188c0.783,0.36,1.57,0.753,2.345,1.173c0.774,0.419,1.539,0.868,2.283,1.332
				c0.124-2.306-0.228-3.954-1.104-4.428C-120.016,169.792-121.29,170.559-122.665,172.188z"/>
			<path fill="#FFFFFF" d="M-129.225,184.879c-0.137-0.089-0.271-0.182-0.405-0.273c-1.895-0.759-3.505-1.2-4.713-1.345
				c-0.283,1.337-0.449,2.584-0.49,3.674c1.098,1.071,2.646,2.285,4.574,3.517C-130.128,188.815-129.782,186.917-129.225,184.879z"
				/>
			<path fill="#FFFFFF" d="M-136.681,183.804c-0.213,0.559,0.314,1.541,1.453,2.734c0.057-1.007,0.214-2.128,0.459-3.317
				C-135.824,183.153-136.506,183.348-136.681,183.804z"/>
			<path fill="#FFFFFF" d="M-134.678,182.793c0.14-0.625,0.3-1.261,0.486-1.911c-1.188-1.208-2.025-2.366-2.333-3.362
				c-0.533,1.909-0.654,3.909-0.412,5.871C-136.587,182.88-135.78,182.703-134.678,182.793z"/>
			<path fill="#FFFFFF" d="M-127.31,191.681c0.342,0.188,0.669,0.379,0.979,0.58l2.801-1.058c0.465-0.744,0.924-1.566,1.371-2.449
				c-1.133-0.496-2.281-1.051-3.402-1.66c-1.119-0.605-2.229-1.27-3.284-1.962c-0.54,2.003-0.88,3.884-1.008,5.488
				C-129.071,190.84-128.203,191.197-127.31,191.681z"/>
			<path fill="#FFFFFF" d="M-133.995,180.226c0.236-0.763,0.498-1.54,0.797-2.324c0.297-0.78,0.616-1.528,0.945-2.241
				c-2.061-0.325-3.412-0.062-3.719,0.74C-136.274,177.201-135.554,178.588-133.995,180.226z"/>
			<path fill="#FFFFFF" d="M-131.772,170.941c-0.175,0.456,0.148,1.192,0.883,2.093c0.587-0.999,1.189-1.875,1.783-2.59
				C-130.6,170.209-131.56,170.383-131.772,170.941z"/>
			<path fill="#FFFFFF" d="M-126.175,176.881c0.912-1.821,1.871-3.365,2.811-4.556c-2.048-0.918-3.834-1.509-5.232-1.791
				c-0.656,0.757-1.332,1.725-1.989,2.855c0.856,0.957,2.138,2.069,3.786,3.23C-126.592,176.705-126.384,176.791-126.175,176.881z"
				/>
			<path fill="#FFFFFF" d="M-128.673,184.51c0.072,0.047,0.146,0.092,0.221,0.139c1.07,0.467,2.16,0.998,3.226,1.572
				c1.065,0.579,2.116,1.209,3.114,1.861c0.077,0.037,0.156,0.072,0.234,0.106c0.51-1.05,1-2.181,1.454-3.366
				c0.452-1.19,0.842-2.371,1.171-3.518c-1.143-0.489-2.314-1.052-3.46-1.671c-1.145-0.622-2.272-1.304-3.335-2.011
				c-0.509,1.049-0.998,2.179-1.451,3.363C-127.952,182.176-128.344,183.358-128.673,184.51z"/>
			<path fill="#FFFFFF" d="M-128.771,170.064c0.495-0.548,0.983-0.983,1.448-1.282c-1.145,0.207-2.245,0.593-3.268,1.133
				C-130.075,169.883-129.463,169.936-128.771,170.064z"/>
			<path fill="#FFFFFF" d="M-129.036,191.204c0.504,0.298,1.022,0.595,1.568,0.892c0.225,0.122,0.44,0.233,0.66,0.346l0.146-0.054
				c-0.243-0.15-0.492-0.297-0.75-0.44C-127.964,191.647-128.512,191.401-129.036,191.204z"/>
			<path fill="#FFFFFF" d="M-135.626,175.165c0.832-0.378,2.115-0.389,3.659-0.115c0.281-0.578,0.573-1.129,0.868-1.652
				c-0.797-0.945-1.213-1.793-1.099-2.452C-133.593,172.016-134.772,173.438-135.626,175.165z"/>
			<path fill="#FFFFFF" d="M-132.931,192.305c-0.223-0.459-0.289-0.881-0.159-1.222c0.222-0.579,0.948-0.808,1.962-0.714
				c-1.419-0.954-2.701-1.946-3.715-2.896c0,1.337,0.207,2.392,0.646,2.992l-0.088,0.074
				C-133.874,191.159-133.422,191.749-132.931,192.305z"/>
			<path fill="#FFFFFF" d="M-134.491,190.714l-0.018,0.011c-0.09-0.122-0.172-0.266-0.244-0.419
				c-1.084-1.737-1.854-3.663-2.254-5.659c-0.085-0.241-0.135-0.477-0.125-0.688c-0.371-2.348-0.235-4.761,0.488-7.032
				c-0.027-0.298,0.004-0.58,0.102-0.836c0.1-0.256,0.256-0.471,0.462-0.642c0.991-2.21,2.491-3.957,4.292-5.174
				c0.063-0.047,0.123-0.093,0.195-0.132c1.563-1.006,3.449-1.62,5.32-1.795c0.146-0.033-0.162-0.06,0.531-0.055l0.002,0.026
				c2.07-0.122,4.244,0.318,6.392,1.389c0.161,0.029,0.265,0.079,0.411,0.159c0.145,0.079-0.046,0.125,0.076,0.25
				c1.199,0.701,2.99,1.705,2.932,2.487l0.774-10.386c0.022-0.302,0.116-0.406-0.149-0.302l-23.896,9.091
				c-0.267,0.104-0.686,0.399-0.708,0.701l-1.917,25.488c-0.023,0.303,0.508,0.529,0.775,0.428l9.481-3.48
				C-132.763,193.144-133.633,192.003-134.491,190.714z"/>
			<path fill="#FFFFFF" d="M-132.836,191.219c-0.25,0.661,0.479,1.766,1.745,2.84l0.928-0.352c-0.145-0.779-0.186-1.719-0.127-2.787
				c-0.086-0.056-0.172-0.107-0.256-0.162C-131.736,190.521-132.62,190.661-132.836,191.219z"/>
			<path fill="#FFFFFF" d="M-135.245,187.09c-0.521-0.52-0.943-1.018-1.261-1.483c0.33,1.236,0.8,2.435,1.404,3.566
				C-135.215,188.573-135.262,187.873-135.245,187.09z"/>
			<path fill="#FFFFFF" d="M-125.91,168.743c-0.678-0.002-1.497,0.523-2.356,1.43c1.277,0.286,2.764,0.789,4.315,1.444
				c-0.738-0.854-1.076-1.665-0.854-2.249c0.141-0.366,0.486-0.593,0.979-0.686c-0.705-0.085-1.404-0.104-2.094-0.064
				L-125.91,168.743z"/>
			<path fill="#FFFFFF" d="M-118.466,170.747c0.461,0.92,0.784,2.383,0.682,4.169c0.072,0.044-0.079,0.045-0.008,0.093
				c0.809,0.161,1.654,0.189,1.675-0.083l0.125-1.666C-115.939,172.564-117.192,171.571-118.466,170.747z"/>
			<path fill="#FFFFFF" d="M-117.063,175.428c0.415,0.276,1.228,0.637,1.212,0.842l0.072-0.939
				C-115.792,175.509-116.555,175.479-117.063,175.428z"/>
			<path fill="#FFFFFF" d="M-127.339,192.643c-0.093-0.051-0.188-0.099-0.281-0.148c-0.768-0.416-1.529-0.861-2.27-1.324
				c-0.045,0.917-0.017,1.727,0.094,2.398L-127.339,192.643z"/>
			<path fill="#FFFFFF" d="M-124.551,169.506c-0.216,0.564,0.289,1.459,1.235,2.381c0.076,0.033,0.15,0.07,0.226,0.101
				c1.05-1.254,2.065-2.05,2.944-2.25C-122.315,168.783-124.222,168.649-124.551,169.506z"/>
			<path fill="#FFFFFF" d="M-130.921,183.682c-1.089-0.811-2.082-1.641-2.922-2.456c-0.154,0.546-0.289,1.084-0.408,1.611
				C-133.292,182.965-132.154,183.261-130.921,183.682z"/>
			<path fill="#FFFFFF" d="M-127.882,180.782c0.453-1.185,0.934-2.303,1.433-3.34c-2.049-0.868-3.866-1.43-5.356-1.711
				c-0.353,0.757-0.693,1.551-1.011,2.376c-0.315,0.831-0.593,1.658-0.837,2.471c1.157,1.157,2.708,2.42,4.605,3.688
				C-128.72,183.134-128.335,181.967-127.882,180.782z"/>
			<path fill="#FFFFFF" d="M-128.197,176.091c-1.027-0.798-1.913-1.592-2.597-2.339c-0.246,0.441-0.489,0.903-0.727,1.387
				C-130.497,175.348-129.372,175.671-128.197,176.091z"/>
		</g>
	</g>
</g>
</svg>
