<?xml version="1.0" encoding="utf-8"?>
<!-- Generator: Adobe Illustrator 16.0.0, SVG Export Plug-In . SVG Version: 6.00 Build 0)  -->
<!DOCTYPE svg PUBLIC "-//W3C//DTD SVG 1.1//EN" "http://www.w3.org/Graphics/SVG/1.1/DTD/svg11.dtd">
<svg version="1.1" xmlns="http://www.w3.org/2000/svg" xmlns:xlink="http://www.w3.org/1999/xlink" x="0px" y="0px" width="505px"
	 height="410px" viewBox="0 0 505 410" enable-background="new 0 0 505 410" xml:space="preserve">
<g id="left_line">
	<g>
		<path fill="#FFFFFF" d="M110.516,128.098c-1.076,0-2.149-0.432-2.938-1.284L3.549,14.356c-1.5-1.622-1.401-4.152,0.221-5.653
			c1.62-1.5,4.152-1.401,5.652,0.22l104.029,112.458c1.5,1.622,1.401,4.152-0.221,5.653
			C112.462,127.746,111.487,128.098,110.516,128.098z"/>
	</g>
</g>
<g id="right_line">
	<g>
		<path fill="#FFFFFF" d="M394.484,128.099c-0.972,0-1.945-0.352-2.715-1.063c-1.622-1.5-1.721-4.031-0.221-5.653L495.578,8.925
			c1.5-1.622,4.031-1.721,5.652-0.22c1.622,1.5,1.721,4.031,0.221,5.653L397.422,126.815
			C396.634,127.667,395.561,128.099,394.484,128.099z"/>
	</g>
</g>
<g id="right_1">
	<g>
		<path fill="#FFFFFF" d="M397.878,257.883c-0.361,0-0.725-0.072-1.069-0.221l-142.885-61.549c-0.838-0.361-1.438-1.119-1.596-2.017
			c-0.157-0.898,0.147-1.815,0.812-2.44l66.429-62.478c0.787-0.738,1.937-0.94,2.926-0.514l142.878,61.573
			c0.837,0.361,1.437,1.119,1.595,2.017c0.157,0.898-0.147,1.815-0.813,2.44l-66.422,62.453
			C399.221,257.629,398.555,257.883,397.878,257.883z M259.853,192.773l137.466,59.215l62.124-58.412l-137.459-59.238
			L259.853,192.773z"/>
	</g>
</g>
<g id="left_1">
	<g>
		<path fill="#FFFFFF" d="M111.025,253.786c-0.703,0-1.394-0.274-1.911-0.789l-64.606-64.334c-0.646-0.644-0.925-1.569-0.741-2.462
			s0.805-1.634,1.651-1.971l144.584-57.461c1.004-0.399,2.145-0.163,2.91,0.597l64.615,64.348c0.646,0.644,0.925,1.569,0.741,2.462
			s-0.805,1.634-1.652,1.971l-144.593,57.447C111.699,253.724,111.361,253.786,111.025,253.786z M51.25,187.738l60.426,60.171
			l139.109-55.269l-60.435-60.184L51.25,187.738z"/>
	</g>
</g>
<g id="bottom_box">
	<g>
		<path fill="#FFFFFF" d="M254.988,402.36l1.254-87.897l139.161-55.276l-2.049,143.173h5.413l2.105-147.145
			c0.013-0.903-0.426-1.754-1.17-2.267c-0.744-0.514-1.697-0.622-2.535-0.287L252.563,310.1c-1.018,0.404-1.691,1.382-1.707,2.477
			l-1.281,89.784H254.988z"/>
		<path fill="#FFFFFF" d="M111.232,402.36l2.102-147.201l137.495,59.226l-1.255,87.975h5.414l1.279-89.707
			c0.016-1.095-0.63-2.091-1.636-2.524l-142.876-61.543c-0.828-0.357-1.782-0.277-2.542,0.214c-0.759,0.492-1.222,1.329-1.234,2.233
			l-2.161,151.327H111.232z"/>
	</g>
</g>
<g id="right_2">
	<g>
		<path fill="#FFFFFF" d="M317.904,379.668c-0.703,0-1.394-0.274-1.911-0.789l-64.618-64.347c-0.646-0.644-0.925-1.569-0.741-2.462
			c0.184-0.894,0.805-1.634,1.652-1.971l144.594-57.438c1.004-0.4,2.145-0.164,2.909,0.597l64.614,64.342
			c0.646,0.644,0.925,1.569,0.741,2.462c-0.184,0.894-0.805,1.634-1.652,1.971l-144.59,57.443
			C318.578,379.605,318.24,379.668,317.904,379.668z M258.117,313.607l60.438,60.183l139.106-55.265l-60.434-60.179L258.117,313.607
			z"/>
	</g>
</g>
<g id="left2">
	<path fill="#FFFFFF" d="M256.586,312.146c-0.158-0.898-0.758-1.656-1.596-2.017l-142.896-61.535
		c-0.991-0.426-2.14-0.224-2.925,0.515l-66.423,62.476c-0.664,0.625-0.969,1.542-0.812,2.44c0.158,0.898,0.758,1.656,1.596,2.017
		l142.892,61.536c0.345,0.148,0.709,0.221,1.069,0.221c0.677,0,1.344-0.253,1.855-0.735l66.427-62.478
		C256.438,313.961,256.743,313.044,256.586,312.146z M186.933,371.904L49.46,312.702l62.125-58.434l137.477,59.202L186.933,371.904z
		"/>
</g>
</svg>
