<?xml version="1.0" encoding="utf-8"?>
<!-- Generator: Adobe Illustrator 16.0.0, SVG Export Plug-In . SVG Version: 6.00 Build 0)  -->
<!DOCTYPE svg PUBLIC "-//W3C//DTD SVG 1.1//EN" "http://www.w3.org/Graphics/SVG/1.1/DTD/svg11.dtd">
<svg version="1.1" xmlns="http://www.w3.org/2000/svg" xmlns:xlink="http://www.w3.org/1999/xlink" x="0px" y="0px"
	 width="343.336px" height="189.971px" viewBox="0 0 343.336 189.971" enable-background="new 0 0 343.336 189.971"
	 xml:space="preserve">
<g id="圖層_1">
	<g id="Layer_1">
		<g>
			
				<linearGradient id="SVGID_1_" gradientUnits="userSpaceOnUse" x1="-32.4827" y1="120.3875" x2="-32.4827" y2="103.3621" gradientTransform="matrix(1 0 0 -1 222.3999 232.4331)">
				<stop  offset="0" style="stop-color:#00B7E0"/>
				<stop  offset="1" style="stop-color:#009CC0"/>
			</linearGradient>
			<path fill="url(#SVGID_1_)" d="M189.898,112.046c4.686,0,8.525,3.805,8.525,8.504c0,4.684-3.843,8.521-8.525,8.521
				c-4.67,0-8.486-3.838-8.486-8.521C181.41,115.849,185.229,112.046,189.898,112.046z"/>
			
				<linearGradient id="SVGID_2_" gradientUnits="userSpaceOnUse" x1="-192.2117" y1="182.3083" x2="-192.2117" y2="104.0544" gradientTransform="matrix(1 0 0 -1 222.3999 232.4331)">
				<stop  offset="0" style="stop-color:#00B7E0"/>
				<stop  offset="1" style="stop-color:#009CC0"/>
			</linearGradient>
			<path fill="url(#SVGID_2_)" d="M22.024,119.891V65.177H10.142c-5.256,0-7.43-3.817-7.43-7.517c0-3.831,2.708-7.535,7.43-7.535
				h40.104c4.693,0,7.417,3.703,7.417,7.535c0,3.695-2.176,7.517-7.417,7.517H38.341v54.714c0,5.463-3.45,8.488-8.173,8.488
				C25.475,128.38,22.024,125.353,22.024,119.891z"/>
			
				<linearGradient id="SVGID_3_" gradientUnits="userSpaceOnUse" x1="-152.9568" y1="182.9568" x2="-152.9568" y2="104.0544" gradientTransform="matrix(1 0 0 -1 222.3999 232.4331)">
				<stop  offset="0" style="stop-color:#00B7E0"/>
				<stop  offset="1" style="stop-color:#009CC0"/>
			</linearGradient>
			<path fill="url(#SVGID_3_)" d="M61.258,119.89V57.954c0-5.451,3.465-8.478,8.198-8.478c4.67,0,8.171,3.023,8.171,8.478v61.938
				c0,5.463-3.501,8.487-8.171,8.487C64.723,128.379,61.258,125.353,61.258,119.89z"/>
			
				<linearGradient id="SVGID_4_" gradientUnits="userSpaceOnUse" x1="-104.2932" y1="182.9548" x2="-104.2932" y2="104.0554" gradientTransform="matrix(1 0 0 -1 222.3999 232.4331)">
				<stop  offset="0" style="stop-color:#00B7E0"/>
				<stop  offset="1" style="stop-color:#009CC0"/>
			</linearGradient>
			<path fill="url(#SVGID_4_)" d="M140.307,128.378c-3.172,0-5.231-1.816-8.309-5.101L103.79,92.776v27.771
				c0,4.24-3.311,7.828-8.211,7.828c-4.684,0.001-8.16-3.023-8.16-7.828V57.546c0-4.446,3.271-8.066,8.16-8.066
				c4.71,0,8.211,3.021,8.211,8.066v23.526l26.818-28.571c1.184-1.279,3.253-3.021,6.279-3.021c4.16,0,8.112,3.133,8.112,7.842
				c0,2.844-1.758,5.142-5.345,8.722l-20.625,20.295l25.178,26.279c2.633,2.598,4.585,4.991,4.585,8.251
				C148.795,126.024,144.747,128.378,140.307,128.378z"/>
			
				<linearGradient id="SVGID_5_" gradientUnits="userSpaceOnUse" x1="-60.2024" y1="182.9568" x2="-60.2024" y2="104.0564" gradientTransform="matrix(1 0 0 -1 222.3999 232.4331)">
				<stop  offset="0" style="stop-color:#00B7E0"/>
				<stop  offset="1" style="stop-color:#009CC0"/>
			</linearGradient>
			<path fill="url(#SVGID_5_)" d="M170.382,119.89c0,5.462-3.487,8.486-8.186,8.486c-4.671,0-8.185-3.024-8.185-8.486V57.954
				c0-5.453,3.514-8.478,8.185-8.478c4.696,0,8.186,3.021,8.186,8.478V119.89z"/>
			
				<linearGradient id="SVGID_6_" gradientUnits="userSpaceOnUse" x1="14.3933" y1="182.9587" x2="14.3933" y2="104.0564" gradientTransform="matrix(1 0 0 -1 222.3999 232.4331)">
				<stop  offset="0" style="stop-color:#00B7E0"/>
				<stop  offset="1" style="stop-color:#009CC0"/>
			</linearGradient>
			<path fill="url(#SVGID_6_)" d="M204.839,61.356c-0.55-1.438-0.735-2.513-0.735-4.038c0-4.574,4.002-7.841,8.383-7.841
				c3.693,0,5.978,2.379,7.399,5.334l16.909,45.345l16.891-45.345c1.404-2.955,3.685-5.334,7.416-5.336
				c4.34,0,8.381,3.268,8.381,7.842c0,1.525-0.209,2.601-0.748,4.038l-23.891,60.729c-1.414,3.449-3.257,6.293-8.049,6.293
				c-4.831,0-6.662-2.844-8.076-6.293L204.839,61.356z"/>
			
				<linearGradient id="SVGID_7_" gradientUnits="userSpaceOnUse" x1="83.9988" y1="182.9587" x2="83.9988" y2="104.0574" gradientTransform="matrix(1 0 0 -1 222.3999 232.4331)">
				<stop  offset="0" style="stop-color:#00B7E0"/>
				<stop  offset="1" style="stop-color:#009CC0"/>
			</linearGradient>
			<path fill="url(#SVGID_7_)" d="M339.49,119.888c0,5.463-3.514,8.487-8.186,8.487c-2.063,0-5.328-1.634-6.854-3.587
				l-34.591-45.562h-0.191v40.657c0,5.464-3.485,8.488-8.173,8.488c-4.72,0-8.187-3.024-8.187-8.488V57.952
				c0-5.451,3.467-8.478,8.187-8.478c2.036,0,5.418,1.62,6.899,3.62l34.508,46.079h0.231V57.952c0-5.451,3.474-8.478,8.171-8.478
				c4.672,0,8.186,3.023,8.186,8.478V119.888L339.49,119.888z"/>
			<g>
				
					<linearGradient id="SVGID_8_" gradientUnits="userSpaceOnUse" x1="-153.2566" y1="227.8826" x2="-153.2566" y2="189.9197" gradientTransform="matrix(1 0 0 -1 222.3999 232.4331)">
					<stop  offset="0" style="stop-color:#00B7E0"/>
					<stop  offset="1" style="stop-color:#009CC0"/>
				</linearGradient>
				<path fill="url(#SVGID_8_)" d="M69.138,4.552c-10.477,0-18.979,8.493-18.979,18.983c0,10.463,8.504,18.979,18.979,18.979
					c10.514,0,18.988-8.516,18.988-18.979C88.126,13.046,79.652,4.552,69.138,4.552z M83.687,24.708
					c0,8.024-6.523,14.516-14.549,14.516c-8.016,0-14.527-6.488-14.527-14.516c0-1.396,0.222-2.724,0.563-3.996l27.933-0.002
					C83.481,21.984,83.687,23.312,83.687,24.708z"/>
				
					<linearGradient id="SVGID_9_" gradientUnits="userSpaceOnUse" x1="-60.1897" y1="227.8826" x2="-60.1897" y2="189.9197" gradientTransform="matrix(1 0 0 -1 222.3999 232.4331)">
					<stop  offset="0" style="stop-color:#00B7E0"/>
					<stop  offset="1" style="stop-color:#009CC0"/>
				</linearGradient>
				<path fill="url(#SVGID_9_)" d="M162.209,4.552c-10.464,0-18.988,8.493-18.988,18.983c0,10.463,8.524,18.979,18.988,18.979
					c10.479,0,18.99-8.516,18.99-18.979C181.2,13.046,172.689,4.552,162.209,4.552z M162.209,39.222
					c-8.021,0-14.525-6.488-14.525-14.516c0-1.396,0.186-2.725,0.573-3.998h27.933c0.354,1.273,0.562,2.604,0.562,3.998
					C176.749,32.733,170.249,39.222,162.209,39.222z"/>
			</g>
		</g>
	</g>
	<g id="圖層_1_1_">
	</g>
</g>
<g id="UCF">
	<path fill="#00B3DC" d="M33.7,160.491c-0.979,3.298-2.318,6.302-4.049,8.882c0.425,1.371,0.849,2.122,1.306,2.122
		c0.392,0,0.653-1.208,0.719-3.853c0.718,0.718,1.73,1.469,2.514,1.796c-0.49,4.245-1.404,5.453-3.625,5.42
		c-1.273,0-2.286-0.946-3.135-2.579c-1.241,1.404-2.678,2.645-4.245,3.624c3.331,0,9.11-0.032,11.331-0.13
		c-0.621,0.914-1.273,2.677-1.502,3.853H21.194c-6.368,0-10.613-0.914-13.421-5.127c-0.424,2.123-1.078,4.082-2.155,5.878
		c-0.49-0.783-1.763-1.992-2.514-2.384c2.057-3.689,2.221-8.751,2.057-13.159l3.266,0.196c0.033,1.24,0.033,2.547,0,3.82
		c0.49,1.437,1.078,2.547,1.796,3.461v-9.273H3.887v-3.429h5.584v-2.775H4.932v-3.396h4.539v-3.461h3.592v3.461h4.408v3.396h-4.408
		v2.775h4.963v3.429h-4.311v3.56h3.69v2.971c0.621-0.424,1.339-1.175,1.339-2.384v-12.049h5.878
		c-0.098-1.73-0.131-3.429-0.164-5.192h3.494c-0.033,1.764,0,3.494,0.065,5.192h2.71c-0.588-1.045-1.633-2.547-2.481-3.657
		l2.612-1.339c0.979,1.176,2.188,2.775,2.808,3.755l-2.286,1.241h2.547v3.232h-5.78c0.164,2.286,0.359,4.343,0.621,6.204
		c0.784-1.567,1.437-3.232,1.926-4.897L33.7,160.491z M13.716,174.891c1.992,0.816,4.506,1.012,7.511,1.012h1.861
		c-0.555-0.816-1.567-2.024-2.319-2.678c2.057-1.11,3.854-2.71,5.421-4.669c-0.686-2.775-1.143-6.335-1.404-10.188h-2.58v8.588
		l2.286-1.339c0.164,0.915,0.588,2.318,0.915,2.972c-5.16,3.168-6.139,3.854-6.662,4.474c-0.196-0.816-0.816-2.221-1.339-3.102
		h-3.69V174.891z"/>
	<path fill="#00B3DC" d="M64.682,156.278c-0.131,0.882-0.294,1.666-0.457,2.449h11.984v17.731c0,1.894-0.457,2.775-1.796,3.33
		c-1.306,0.522-3.233,0.556-5.845,0.556c-0.163-0.979-0.751-2.384-1.241-3.298c1.567,0.098,3.625,0.098,4.114,0.064
		c0.588,0,0.751-0.163,0.751-0.686v-14.139h-6.237l3.266,0.653c-0.458,1.208-0.915,2.384-1.372,3.429h2.384v3.004h-5.519v2.122
		h6.237v3.135h-6.237v4.833h-3.657v-4.833h-6.041v-3.135h6.041v-2.122h-5.355v-3.004h2.515c-0.294-0.98-0.784-2.286-1.273-3.299
		l3.069-0.751c0.588,1.11,1.208,2.58,1.469,3.56l-1.73,0.49h4.768c0.49-1.274,0.979-2.874,1.241-4.082H53.71v18.058h-3.918v-21.617
		h10.58c0.131-0.783,0.262-1.567,0.359-2.449h-12.18v-3.624h12.572c0.065-0.979,0.13-1.895,0.163-2.743l4.31,0.392
		c-0.098,0.751-0.229,1.567-0.326,2.352h12.147v3.624H64.682z"/>
	<path fill="#00B3DC" d="M120.905,167.315c-0.881,3.004-2.253,5.519-4.016,7.543c1.6,1.013,3.494,1.796,5.583,2.286
		c-0.783,0.686-1.796,2.09-2.286,3.004c-2.22-0.653-4.212-1.6-5.877-2.873c-1.731,1.339-3.625,2.351-5.714,3.135
		c-0.392-0.85-1.241-2.09-1.927-2.874v2.906h-3.625v-2.809c-3.788,0.425-7.576,0.784-10.515,1.11l-0.294-3.33
		c0.849-0.065,1.796-0.131,2.841-0.229v-9.895h-2.547v-3.069h28.997v3.069h-14.857v12.017c1.763-0.522,3.461-1.404,4.931-2.481
		c-1.241-1.437-2.318-3.135-3.135-4.996l1.176-0.326h-1.959v-2.972h10.188l0.621-0.131L120.905,167.315z M100.072,161.209h-3.723
		v-10.221h21.454v10.221h-3.918v-7.543h-13.813V161.209z M98.537,165.291v1.339h4.506v-1.339H98.537z M98.537,170.613h4.506v-1.306
		h-4.506V170.613z M98.537,174.858c1.437-0.13,3.004-0.261,4.506-0.424v-1.144h-4.506V174.858z M112.676,157.094h-11.592v-2.253
		h11.592V157.094z M101.116,160.589v-2.253h11.56v2.253H101.116z M111.86,169.504c0.555,1.109,1.339,2.154,2.221,3.069
		c0.849-0.915,1.6-1.96,2.122-3.069H111.86z"/>
	<path fill="#00B3DC" d="M154.14,162.711c2.155,6.368,6.106,11.494,12.212,13.977c-0.979,0.816-2.253,2.547-2.874,3.657
		c-5.91-2.775-9.698-7.543-12.245-13.846c-1.763,5.453-5.29,10.548-12.212,13.878c-0.621-1.077-1.763-2.481-2.906-3.298
		c7.478-3.331,10.58-8.751,11.854-14.368h-11.233v-4.016h11.886c0.327-3.069,0.294-6.041,0.327-8.719h4.245
		c-0.033,2.678-0.065,5.682-0.392,8.719h12.833v4.016H154.14z"/>
	<path fill="#00B3DC" d="M184.435,162.319h-3.559v-7.347h12.343v-1.307h-10.874v-2.547h25.601v2.547h-10.938v1.307h12.604v7.347
		h-3.756l-0.686,2.352c-1.73-0.621-5.094-1.437-7.543-1.829l0.751-2.188c2.318,0.261,5.552,0.947,7.348,1.535v-4.67h-1.764
		l1.176,1.665c-1.73,0.719-4.114,1.241-5.813,1.567l-1.208-1.828c1.273-0.294,3.102-0.882,4.474-1.404h-5.584v6.792h-3.788v-6.792
		h-6.236c1.763,0.326,3.853,0.882,5.094,1.339l-1.045,2.09c-1.307-0.522-3.756-1.208-5.617-1.601l0.915-1.828h-1.764v4.474
		c1.992-0.229,4.735-0.62,7.543-1.045l0.131,2.221c-2.449,0.555-4.865,1.11-6.923,1.567L184.435,162.319z M205.268,177.047
		c1.666,0,1.96-0.49,2.188-3.233c0.751,0.522,2.221,1.013,3.232,1.208c-0.457,3.919-1.534,4.964-5.094,4.964h-6.857
		c-4.44,0-5.715-0.914-5.715-4.311v-0.098h-5.42v1.404h-3.723v-11.854h22.629v10.449h-9.764v0.098c0,1.176,0.393,1.372,2.352,1.372
		H205.268z M187.603,167.74v1.47h5.42v-1.47H187.603z M193.023,172.965v-1.47h-5.42v1.47H193.023z M202.656,167.74h-5.911v1.47
		h5.911V167.74z M202.656,172.965v-1.47h-5.911v1.47H202.656z"/>
	<path fill="#00B3DC" d="M253.851,156.344h-9.567l3.069,0.621c-0.653,1.175-1.372,2.318-2.024,3.33h7.021v16.523
		c0,1.73-0.425,2.481-1.633,2.938c-1.176,0.457-2.938,0.489-5.552,0.489c-0.163-0.849-0.587-2.057-1.045-2.841
		c1.568,0.065,3.429,0.065,3.919,0.033c0.522,0,0.719-0.163,0.719-0.653v-13.355h-5.062v0.85c0,0.62,0.065,0.914,0.62,0.914h1.601
		c0.489,0,1.469-0.065,1.894-0.196c0.032,0.882,0.098,1.698,0.229,2.58c-0.457,0.163-1.339,0.229-2.058,0.229h-2.612
		c-2.645,0-3.102-1.241-3.102-3.56v-0.816h-2.318c-0.392,2.416-1.404,3.984-4.245,5.029h11.82v7.967h-9.437v1.339h-3.232v-9.013
		c-0.393,0.099-0.784,0.196-1.241,0.294c-0.229-0.718-0.914-1.796-1.535-2.416v13.715h-3.723v-20.05h6.728
		c-0.359-0.979-0.979-2.253-1.503-3.266l2.155-0.686h-8.914v-3.266h12.865c-0.195-0.849-0.489-1.697-0.751-2.448l3.756-0.947
		c0.392,1.045,0.849,2.318,1.143,3.396h12.017V156.344z M230.078,166.401c3.037-0.522,4.082-1.404,4.474-2.972h-4.474V166.401z
		 M241.703,160.295c0.653-1.24,1.339-2.743,1.698-3.951h-8.229c0.587,1.078,1.273,2.352,1.632,3.2l-2.09,0.751H241.703z
		 M236.087,171.135v2.612h6.335v-2.612H236.087z"/>
	<path fill="#00B3DC" d="M298.221,169.667h-12.833v10.775h-4.049v-10.775h-12.703v-3.951h12.703v-9.895h-11.005v-3.853h25.992v3.853
		h-10.938v9.895h12.833V169.667z M275.886,156.866c1.077,2.09,2.253,4.833,2.612,6.661l-3.788,1.176
		c-0.327-1.73-1.339-4.604-2.384-6.792L275.886,156.866z M288,163.658c1.045-1.894,2.221-4.768,2.841-6.89l4.147,1.045
		c-1.176,2.515-2.515,5.159-3.593,6.824L288,163.658z"/>
	<path fill="#00B3DC" d="M333.153,152.948c3.005,2.808,6.891,6.824,8.588,9.567l-3.298,2.384c-0.425-0.719-1.012-1.567-1.698-2.481
		c-17.339,0.849-19.657,0.914-21.388,1.502c-0.196-0.784-0.816-2.711-1.273-3.723c0.849-0.229,1.633-0.85,2.71-1.895
		c1.143-1.012,4.702-4.963,6.923-8.882l3.918,1.666c-2.057,3.036-4.637,5.942-7.118,8.326l13.388-0.424
		c-1.273-1.438-2.579-2.809-3.787-4.017L333.153,152.948z M316.434,166.075h22.009v14.302h-4.18v-1.633h-13.845v1.666h-3.984
		V166.075z M320.418,169.797v5.225h13.845v-5.225H320.418z"/>
</g>
</svg>
