<svg version="1.1" xmlns="http://www.w3.org/2000/svg" xmlns:xlink="http://www.w3.org/1999/xlink" x="0px" y="0px" width="380px" height="330px" viewBox="0 0 392.819 368.59" enable-background="new 0 0 392.819 368.59" xml:space="preserve">
	<!-- blue square -->
	<rect id="distributionBoxBlue" class="animateItem" x="50.664" y="47" fill="#00B4DD" width="316" height="291" data-delay="3600"/>
	<!-- white square -->
	<rect x="27" y="28" fill="#FFFFFF" width="318" height="298"/>
	<!-- blue line square -->
	<rect id="distributionBoxLine" class="animateItem" x="27.5" y="27.5" fill="none" stroke="#00B9E3" stroke-width="5" stroke-miterlimit="10" width="318" height="298" data-delay="2900"/>
	<g id="distributionCharShadow" class="animateItem" data-delay="2500"> 
		<!-- 指 shadow -->
		<path fill="#00B4DD" d="M110.338,121.453l-11.844,3.324v24.831c0,6.026-1.144,9.039-4.676,11.014 c-3.429,1.974-8.416,2.285-15.688,2.285c-0.416-3.221-2.078-8.207-3.637-11.429c4.053,0.104,8.313,0.104,9.663,0.104 c1.454,0,1.974-0.52,1.974-1.975v-21.506c-4.156,1.143-8,2.077-11.637,3.013l-3.116-12.052c4.26-0.936,9.351-2.078,14.753-3.429 V97.66H73.143V85.816H86.13V66.388h12.364v19.429h10.285V97.66H98.494v15.065c3.532-0.936,7.064-1.767,10.39-2.701L110.338,121.453 z M130.909,109.505c-13.61,0-17.87-4.468-17.87-16.416V66.283h12.26v11.221h40.209v10.598h-40.209v5.402 c0,3.948,0.936,5.403,5.507,5.403h23.48c4.156,0,10.39-0.208,13.403-0.831c0.312,3.116,0.831,7.688,1.246,10.493 c-2.597,0.728-8.831,0.936-14.025,0.936H130.909z M113.975,115.946h50.494v46.961h-12.26v-4.052h-26.494v4.468h-11.74V115.946z M125.715,126.128v6.338h26.494v-6.338H125.715z M152.209,148.985v-6.857h-26.494v6.857H152.209z"/>
		<!-- 定 shadow -->
		<path fill="#00B4DD" d="M267.744,148.777c3.844,0.52,7.896,0.728,12.26,0.728c5.506,0,22.649,0,29.714-0.208 c-1.87,2.909-3.844,8.831-4.467,12.572H279.38c-19.429,0-33.662-3.222-43.117-18.286c-3.429,8.104-8,14.857-13.922,19.948 c-1.975-2.182-7.273-6.546-10.078-8.208c11.221-8.416,16.416-22.857,18.286-40.52l12.571,1.143 c-0.52,4.363-1.351,8.623-2.182,12.571c3.116,8.52,7.896,13.507,13.922,16.624V109.92h-22.13V98.076h57.144v11.844h-22.13v12.26 h28.468v11.637h-28.468V148.777z M229.094,103.271h-12.155V77.297h38.545c-1.038-2.909-2.285-5.923-3.636-8.624l12.468-3.429 c2.077,3.637,4.26,8.312,5.402,12.053h36.052v25.974H292.99V88.933h-63.896V103.271z"/>
		<!-- 物 shadow --> 
		<path fill="#00B4DD" d="M113.247,247.688c-3.74,1.039-7.377,2.286-11.221,3.429v36.987H90.701v-33.559 c-5.61,1.662-10.805,3.325-15.584,4.571l-3.014-11.74c5.195-1.143,11.533-2.805,18.598-4.779v-19.844H83.74 c-1.143,5.091-2.39,9.559-3.844,13.299c-1.87-1.559-6.442-4.364-8.728-5.715c3.221-8.208,4.987-21.195,5.922-33.455l10.286,1.767 c-0.416,4.156-0.936,8.208-1.559,12.364h4.883v-19.948h11.325v19.948h8.623v11.74h-8.623v16.728l9.559-2.702L113.247,247.688z  M169.144,207.065c0,0-0.104,4.155-0.208,5.61c-1.974,46.338-3.844,63.273-7.792,68.468c-2.39,3.532-4.675,4.676-8.104,5.403 c-2.909,0.519-7.273,0.519-11.741,0.312c-0.312-3.533-1.558-8.624-3.428-12.053c3.844,0.416,7.272,0.416,9.246,0.416 c1.559,0,2.598-0.416,3.845-1.974c2.598-3.325,4.468-17.455,6.13-54.754h-0.52c-5.091,26.182-15.792,53.195-32.52,67.014 c-2.39-2.39-6.649-5.403-10.078-7.169c16.623-11.948,27.013-35.533,32.208-59.845h-4.884 c-4.571,16.935-13.299,35.532-23.792,45.507c-2.286-2.39-6.233-5.195-9.455-6.961c10.286-8.104,18.391-23.481,22.962-38.546h-5.299 c-3.013,7.169-6.649,13.61-10.701,18.598c-1.975-1.975-6.857-5.403-9.352-6.962c8.208-9.039,13.923-23.896,17.04-39.169 l11.221,2.078c-1.039,4.779-2.39,9.455-3.845,14.026H169.144z"/>
		<!-- 流 shadow -->
		<path fill="#00B4DD" d="M232.107,241.039c-4.053-3.532-12.572-8.415-19.222-11.221l6.442-9.454 c6.545,2.493,15.376,6.856,19.636,10.39L232.107,241.039z M243.432,254.026c-5.507,10.806-12.052,22.649-18.182,32.728 l-10.494-8.312c5.507-7.792,13.403-20.676,19.637-32.728L243.432,254.026z M235.64,213.299c-3.74-3.844-11.948-9.039-18.598-12.156 l6.961-9.039c6.338,2.806,14.857,7.377,18.909,11.325L235.64,213.299z M251.536,240.936h11.116v10.078 c0,11.532-1.662,26.078-15.376,36.571c-1.767-2.493-5.923-6.441-8.728-8.104c11.637-8.52,12.987-19.845,12.987-28.884V240.936z  M299.952,241.352c-1.144-1.767-2.702-4.156-4.468-6.649c-38.546,2.701-44.156,3.221-48.001,4.675 c-0.623-2.39-2.493-8.312-3.844-11.324c2.598-0.728,4.779-2.909,7.896-6.546c1.246-1.247,3.221-3.74,5.61-7.065h-13.61v-11.013 h20.779c2.39-4.156,4.883-8.52,6.961-12.987l12.052,4.676c-1.454,2.805-3.117,5.506-4.883,8.312h29.507v11.013h-14.338 c5.402,6.546,12.675,15.169,16.416,20.572L299.952,241.352z M270.86,214.441c-3.116,4.26-6.338,8.208-9.559,11.948l26.909-1.454 c-1.766-2.182-3.428-4.364-4.986-6.234l7.272-4.26H270.86z M268.99,241.871h10.806v41.559H268.99V241.871z M303.381,276.156 c1.454,0,3.636-0.207,4.986-0.623c0.208,2.909,0.52,6.754,0.936,9.351c-1.559,0.624-3.74,0.728-5.818,0.728h-5.195 c-9.766,0-11.636-4.156-11.636-14.026v-30.649h11.324v30.754c0,3.324,0.104,4.467,1.455,4.467H303.381z"/>
	</g>
	<g id="distributionChar" class="animateItem" data-delay="2900"> 
		<!-- 指 -->
		<path fill="#00B4DD" d="M110.338,121.453l-11.844,3.324v24.831c0,6.026-1.144,9.039-4.676,11.014 c-3.429,1.974-8.416,2.285-15.688,2.285c-0.416-3.221-2.078-8.207-3.637-11.429c4.053,0.104,8.313,0.104,9.663,0.104 c1.454,0,1.974-0.52,1.974-1.975v-21.506c-4.156,1.143-8,2.077-11.637,3.013l-3.116-12.052c4.26-0.936,9.351-2.078,14.753-3.429 V97.66H73.143V85.816H86.13V66.388h12.364v19.429h10.285V97.66H98.494v15.065c3.532-0.936,7.064-1.767,10.39-2.701L110.338,121.453 z M130.909,109.505c-13.61,0-17.87-4.468-17.87-16.416V66.283h12.26v11.221h40.209v10.598h-40.209v5.402 c0,3.948,0.936,5.403,5.507,5.403h23.48c4.156,0,10.39-0.208,13.403-0.831c0.312,3.116,0.831,7.688,1.246,10.493 c-2.597,0.728-8.831,0.936-14.025,0.936H130.909z M113.975,115.946h50.494v46.961h-12.26v-4.052h-26.494v4.468h-11.74V115.946z M125.715,126.128v6.338h26.494v-6.338H125.715z M152.209,148.985v-6.857h-26.494v6.857H152.209z"/>
		<!-- 定 -->
		<path fill="#00B4DD" d="M267.744,148.777c3.844,0.52,7.896,0.728,12.26,0.728c5.506,0,22.649,0,29.714-0.208 c-1.87,2.909-3.844,8.831-4.467,12.572H279.38c-19.429,0-33.662-3.222-43.117-18.286c-3.429,8.104-8,14.857-13.922,19.948 c-1.975-2.182-7.273-6.546-10.078-8.208c11.221-8.416,16.416-22.857,18.286-40.52l12.571,1.143 c-0.52,4.363-1.351,8.623-2.182,12.571c3.116,8.52,7.896,13.507,13.922,16.624V109.92h-22.13V98.076h57.144v11.844h-22.13v12.26 h28.468v11.637h-28.468V148.777z M229.094,103.271h-12.155V77.297h38.545c-1.038-2.909-2.285-5.923-3.636-8.624l12.468-3.429 c2.077,3.637,4.26,8.312,5.402,12.053h36.052v25.974H292.99V88.933h-63.896V103.271z"/>
		<!-- 物 --> 
		<path fill="#00B4DD" d="M113.247,247.688c-3.74,1.039-7.377,2.286-11.221,3.429v36.987H90.701v-33.559 c-5.61,1.662-10.805,3.325-15.584,4.571l-3.014-11.74c5.195-1.143,11.533-2.805,18.598-4.779v-19.844H83.74 c-1.143,5.091-2.39,9.559-3.844,13.299c-1.87-1.559-6.442-4.364-8.728-5.715c3.221-8.208,4.987-21.195,5.922-33.455l10.286,1.767 c-0.416,4.156-0.936,8.208-1.559,12.364h4.883v-19.948h11.325v19.948h8.623v11.74h-8.623v16.728l9.559-2.702L113.247,247.688z  M169.144,207.065c0,0-0.104,4.155-0.208,5.61c-1.974,46.338-3.844,63.273-7.792,68.468c-2.39,3.532-4.675,4.676-8.104,5.403 c-2.909,0.519-7.273,0.519-11.741,0.312c-0.312-3.533-1.558-8.624-3.428-12.053c3.844,0.416,7.272,0.416,9.246,0.416 c1.559,0,2.598-0.416,3.845-1.974c2.598-3.325,4.468-17.455,6.13-54.754h-0.52c-5.091,26.182-15.792,53.195-32.52,67.014 c-2.39-2.39-6.649-5.403-10.078-7.169c16.623-11.948,27.013-35.533,32.208-59.845h-4.884 c-4.571,16.935-13.299,35.532-23.792,45.507c-2.286-2.39-6.233-5.195-9.455-6.961c10.286-8.104,18.391-23.481,22.962-38.546h-5.299 c-3.013,7.169-6.649,13.61-10.701,18.598c-1.975-1.975-6.857-5.403-9.352-6.962c8.208-9.039,13.923-23.896,17.04-39.169 l11.221,2.078c-1.039,4.779-2.39,9.455-3.845,14.026H169.144z"/>
		<!-- 流 -->
		<path fill="#00B4DD" d="M232.107,241.039c-4.053-3.532-12.572-8.415-19.222-11.221l6.442-9.454 c6.545,2.493,15.376,6.856,19.636,10.39L232.107,241.039z M243.432,254.026c-5.507,10.806-12.052,22.649-18.182,32.728 l-10.494-8.312c5.507-7.792,13.403-20.676,19.637-32.728L243.432,254.026z M235.64,213.299c-3.74-3.844-11.948-9.039-18.598-12.156 l6.961-9.039c6.338,2.806,14.857,7.377,18.909,11.325L235.64,213.299z M251.536,240.936h11.116v10.078 c0,11.532-1.662,26.078-15.376,36.571c-1.767-2.493-5.923-6.441-8.728-8.104c11.637-8.52,12.987-19.845,12.987-28.884V240.936z  M299.952,241.352c-1.144-1.767-2.702-4.156-4.468-6.649c-38.546,2.701-44.156,3.221-48.001,4.675 c-0.623-2.39-2.493-8.312-3.844-11.324c2.598-0.728,4.779-2.909,7.896-6.546c1.246-1.247,3.221-3.74,5.61-7.065h-13.61v-11.013 h20.779c2.39-4.156,4.883-8.52,6.961-12.987l12.052,4.676c-1.454,2.805-3.117,5.506-4.883,8.312h29.507v11.013h-14.338 c5.402,6.546,12.675,15.169,16.416,20.572L299.952,241.352z M270.86,214.441c-3.116,4.26-6.338,8.208-9.559,11.948l26.909-1.454 c-1.766-2.182-3.428-4.364-4.986-6.234l7.272-4.26H270.86z M268.99,241.871h10.806v41.559H268.99V241.871z M303.381,276.156 c1.454,0,3.636-0.207,4.986-0.623c0.208,2.909,0.52,6.754,0.936,9.351c-1.559,0.624-3.74,0.728-5.818,0.728h-5.195 c-9.766,0-11.636-4.156-11.636-14.026v-30.649h11.324v30.754c0,3.324,0.104,4.467,1.455,4.467H303.381z"/>
	</g>
<style>
rect#distributionBoxBlue {transform:translate(-23px, -19px);}
rect#distributionBoxBlue.active {transform:none; transition:all .6s cubic-bezier(0.215, 0.61, 0.355, 1);}
rect#distributionBoxLine {opacity:0; stroke-dashoffset:1232px; stroke-dasharray:100px;}
rect#distributionBoxLine.active {opacity:1; stroke-dashoffset:0px; stroke-dasharray:1232px; transition:all .8s cubic-bezier(0.215, 0.61, 0.355, 1);}
g#distributionCharShadow {fill-opacity:1; transform:translate(8px, 8px);}
g#distributionCharShadow.active {fill-opacity:0; transform:translate(1px, 1px); transition:all .8s cubic-bezier(0.215, 0.61, 0.355, 1), fill 0s cubic-bezier(0.215, 0.61, 0.355, 1);}
g#distributionCharShadow path {fill:transparent;}
g#distributionCharShadow.active path {fill:#00B4DD;}
g#distributionChar path {fill:#fff; transition:all .8s cubic-bezier(0.215, 0.61, 0.355, 1);}
g#distributionChar.active path {fill:#00B4DD;}
</style>
</svg>