<?xml version="1.0" encoding="utf-8"?>
<!-- Generator: Adobe Illustrator 16.0.0, SVG Export Plug-In . SVG Version: 6.00 Build 0)  -->
<!DOCTYPE svg PUBLIC "-//W3C//DTD SVG 1.1//EN" "http://www.w3.org/Graphics/SVG/1.1/DTD/svg11.dtd">
<svg version="1.1" xmlns="http://www.w3.org/2000/svg" xmlns:xlink="http://www.w3.org/1999/xlink" x="0px" y="0px"
	 width="59.333px" height="57px" viewBox="0 0 59.333 57" enable-background="new 0 0 59.333 57" xml:space="preserve">
<g id="圖層_1">
</g>
<g id="Layer_4">
	<g>
		<polygon fill="#FBC600" points="49.721,16.079 39.393,29.016 48.51,42.833 33.175,36.908 22.927,49.797 23.716,33.231 
			8.24,27.397 24.05,23.097 24.645,6.657 33.763,20.478 		"/>
		
			<polygon opacity="0.2" fill="none" stroke="#FEDD6B" stroke-width="5.9691" stroke-linecap="round" stroke-linejoin="round" points="
			49.721,16.079 39.393,29.016 48.51,42.833 33.175,36.908 22.927,49.797 23.716,33.231 8.24,27.397 24.05,23.097 24.645,6.657 
			33.763,20.478 		"/>
		
			<polygon opacity="0.25" fill="none" stroke="#FFE696" stroke-width="5.1164" stroke-linecap="round" stroke-linejoin="round" points="
			49.721,16.079 39.393,29.016 48.51,42.833 33.175,36.908 22.927,49.797 23.716,33.231 8.24,27.397 24.05,23.097 24.645,6.657 
			33.763,20.478 		"/>
		
			<polygon opacity="0.3" fill="none" stroke="#FED84F" stroke-width="4.2636" stroke-linecap="round" stroke-linejoin="round" points="
			49.721,16.079 39.393,29.016 48.51,42.833 33.175,36.908 22.927,49.797 23.716,33.231 8.24,27.397 24.05,23.097 24.645,6.657 
			33.763,20.478 		"/>
		<polygon fill="none" stroke="#FEDE6F" stroke-width="3.4109" stroke-linecap="round" stroke-linejoin="round" points="
			49.721,16.079 39.393,29.016 48.51,42.833 33.175,36.908 22.927,49.797 23.716,33.231 8.24,27.397 24.05,23.097 24.645,6.657 
			33.763,20.478 		"/>
		<polygon fill="none" stroke="#FFE389" stroke-width="2.7714" stroke-linecap="round" stroke-linejoin="round" points="
			49.721,16.079 39.393,29.016 48.51,42.833 33.175,36.908 22.927,49.797 23.716,33.231 8.24,27.397 24.05,23.097 24.645,6.657 
			33.763,20.478 		"/>
		<polygon fill="none" stroke="#FFEAA0" stroke-width="2.1318" stroke-linecap="round" stroke-linejoin="round" points="
			49.721,16.079 39.393,29.016 48.51,42.833 33.175,36.908 22.927,49.797 23.716,33.231 8.24,27.397 24.05,23.097 24.645,6.657 
			33.763,20.478 		"/>
		<polygon fill="none" stroke="#FFF0B9" stroke-width="1.407" stroke-linecap="round" stroke-linejoin="round" points="
			49.721,16.079 39.393,29.016 48.51,42.833 33.175,36.908 22.927,49.797 23.716,33.231 8.24,27.397 24.05,23.097 24.645,6.657 
			33.763,20.478 		"/>
		<polygon fill="none" stroke="#FFF6CA" stroke-width="0.5543" stroke-linecap="round" stroke-linejoin="round" points="
			49.721,16.079 39.393,29.016 48.51,42.833 33.175,36.908 22.927,49.797 23.716,33.231 8.24,27.397 24.05,23.097 24.645,6.657 
			33.763,20.478 		"/>
	</g>
</g>
</svg>
