<svg id="vnBox" version="1.1" xmlns="http://www.w3.org/2000/svg" xmlns:xlink="http://www.w3.org/1999/xlink" x="0px" y="0px" width="527.524px" height="537px" viewBox="0 0 527.524 537" enable-background="new 0 0 527.524 537" xml:space="preserve">
	<g id="vnBoxLine" class="animateItem" data-delay="0">
		<polygon fill="none" stroke="#FFFFFF" stroke-width="5.4129" stroke-linecap="round" stroke-linejoin="round" stroke-miterlimit="10" points="264.295,332.255 328.913,396.602 473.503,339.158 408.889,274.816"/>
		<polygon fill="none" stroke="#FFFFFF" stroke-width="5.4129" stroke-linecap="round" stroke-linejoin="round" stroke-miterlimit="10" points="262.01,511.816 406.607,454.393 409.177,274.816 264.571,332.255"/>
		<polygon fill="none" stroke="#FFFFFF" stroke-width="5.4129" stroke-linecap="round" stroke-linejoin="round" stroke-miterlimit="10" points="262.01,511.816 119.131,450.283 121.695,270.712 264.571,332.255"/>
		<polygon fill="none" stroke="#FFFFFF" stroke-width="5.4129" stroke-linecap="round" stroke-linejoin="round" stroke-miterlimit="10" points="264.93,332.255 198.503,394.732 55.611,333.196 122.034,270.72"/>
		<polygon fill="none" stroke="#FFFFFF" stroke-width="5.4129" stroke-linecap="round" stroke-linejoin="round" stroke-miterlimit="10" points="475.311,212.363 408.889,274.816 266.004,213.268 332.433,150.79"/>
		<polygon fill="none" stroke="#FFFFFF" stroke-width="5.4129" stroke-linecap="round" stroke-linejoin="round" stroke-miterlimit="10" points="57.428,206.386 122.034,270.72 266.627,213.272 202.012,148.925"/>
	</g>
	<g id="vnBoxLight" class="animateItem" data-delay="1050">
		<line fill="none" stroke="#FFFFFF" stroke-width="8" stroke-linecap="round" stroke-linejoin="round" stroke-miterlimit="10" x1="509.524" y1="31.281" x2="405.495" y2="143.739"/>
		<line fill="none" stroke="#FFFFFF" stroke-width="8" stroke-linecap="round" stroke-linejoin="round" stroke-miterlimit="10" x1="121.524" y1="143.738" x2="17.495" y2="31.28"/>
	</g>
<style>
g#vnBoxLine {stroke-dashoffset:660; stroke-dasharray:660; opacity:0;}
g#vnBoxLine.active {stroke-dashoffset:0; opacity:1; transition:stroke-dashoffset .8s linear, opacity 0s linear;}
g#vnBoxLight {opacity:0;}
g#vnBoxLight.active {animation:vnBoxDrawLine .1s linear 8 alternate; opacity:1;}
@keyframes vnBoxDrawLine {
	0%		{opacity:0;}
	100% 	{opacity:1;}
}
</style>
</svg>